<svg width="50" height="50" viewBox="0 0 50 50" fill="none" xmlns="http://www.w3.org/2000/svg">
<g clip-path="url(#clip0_2149_156)">
<mask id="mask0_2149_156" style="mask-type:luminance" maskUnits="userSpaceOnUse" x="0" y="0" width="50" height="50">
<path d="M37.585 49.9769C38.6898 49.9537 39.8023 49.8842 40.8915 49.6912C41.9963 49.4904 43.0315 49.1817 44.0358 48.6644C45.0325 48.1702 45.9363 47.5139 46.7167 46.7419C47.4969 45.9698 48.1612 45.0742 48.6558 44.0935C49.1656 43.0975 49.4902 42.0862 49.691 40.9898C49.8919 39.909 49.9538 38.8125 49.9769 37.7162C49.9923 37.2144 49.9923 36.7125 50 36.2106V13.7817C50 13.2798 50 12.778 49.9769 12.2761C49.9537 11.1875 49.8842 10.0834 49.691 9.00248C49.4902 7.90612 49.1656 6.88696 48.6558 5.89871C48.1535 4.92587 47.4969 4.03027 46.7167 3.25046C45.9363 2.47837 45.0248 1.82211 44.0358 1.32798C43.0237 0.826127 41.9963 0.501852 40.8915 0.301112C39.8023 0.108091 38.6898 0.0386042 37.585 0.0154416C37.3765 0.0154416 37.1677 0.00772081 36.8279 0H14.5627L12.4305 0.0231627C11.3257 0.0463252 10.2132 0.115812 9.12392 0.308834C8.01917 0.509573 6.98394 0.826127 5.9796 1.3357C4.983 1.82983 4.0791 2.4861 3.29883 3.25819C2.51854 4.03027 1.85414 4.92587 1.3597 5.90642C0.842089 6.90242 0.52534 7.91383 0.324475 9.01019C0.115884 10.0911 0.054079 11.1875 0.0231765 12.2838C0.00772558 12.7857 0.00772559 13.2875 0 13.7894V36.2183C0 36.7202 0.00772559 37.2221 0.0231767 37.724C0.0463535 38.8125 0.115884 39.9167 0.309023 40.9975C0.50989 42.094 0.834362 43.1131 1.34425 44.1012C1.84641 45.0742 2.50308 45.9698 3.28338 46.7496C4.06367 47.5217 4.97527 48.1779 5.96415 48.6721C6.97621 49.174 8.00371 49.4981 9.10846 49.699C10.1978 49.8919 11.3102 49.9615 12.415 49.9846C12.6236 49.9846 12.8322 49.9923 13.1721 50H34.2552L37.5696 49.9846C37.5696 49.9846 37.585 49.9769 37.585 49.9769Z" fill="white"/>
</mask>
<g mask="url(#mask0_2149_156)">
<path d="M0 0H50V50H0V0Z" fill="#19AA1E"/>
<path fill-rule="evenodd" clip-rule="evenodd" d="M0 0H50V16.4062L0 8.59375V0Z" fill="#FFB919"/>
<path fill-rule="evenodd" clip-rule="evenodd" d="M0 44.5312L50 36.7188V50H0V44.5312Z" fill="#82D714"/>
<path fill-rule="evenodd" clip-rule="evenodd" d="M0 7.60547L17.4529 10.3324C19.6255 8.95724 22.2102 8.20324 25 8.20324C28.864 8.20324 32.3346 9.6497 34.8617 12.1898C35.1806 12.5103 35.4815 12.8454 35.7633 13.1935L50 15.4179V17.3947L37.209 15.3962C38.1592 17.2198 38.6719 19.2516 38.6719 21.3251C38.6719 24.0039 38.0727 26.6747 36.8342 29.3564L36.7965 29.4376L36.2704 30.5647H35.0265C32.4579 30.5647 30.7542 31.333 29.6402 32.6947C28.7656 33.7639 28.2598 35.2051 28.0896 36.7776L28.0844 36.8268L28.0596 37.078L28.049 37.1874L28.0288 37.4012C27.9635 38.1032 27.92 38.6987 27.8979 39.1839L50 35.7305V37.7072L0 45.5197V43.543L22.1269 40.0855L22.1173 39.6418L22.1144 39.5166L22.1125 39.4524L22.109 39.3534C22.0892 38.8153 22.0398 38.1255 21.9608 37.2895L21.9456 37.131L21.9185 36.8564C21.7598 35.2755 21.2615 33.816 20.3892 32.731C19.2869 31.3601 17.5988 30.5805 15.051 30.5649L14.9735 30.5647H13.7296L13.2036 29.4376C11.9395 26.7287 11.3281 24.031 11.3281 21.3251C11.3281 17.9224 12.7086 14.632 15.1383 12.1898C15.2085 12.1193 15.2793 12.0496 15.3509 11.9808L0 9.58224V7.60547Z" fill="white"/>
<path fill-rule="evenodd" clip-rule="evenodd" d="M25 10.1562C31.9804 10.1562 36.7187 15.5291 36.7187 21.325C36.7187 23.6519 36.211 26.0731 35.0265 28.6115C28.1577 28.6115 26.4623 33.5306 26.1417 36.6256L26.1212 36.8319C26.0125 37.9365 25.9498 38.8227 25.9325 39.4908L24.0721 39.7817L24.0717 39.7215C24.0646 39.021 23.9983 38.0385 23.8731 36.774L23.8677 36.7187C23.5715 33.6304 21.9117 28.6115 14.9735 28.6115C13.7889 26.0731 13.2812 23.6519 13.2812 21.325C13.2812 15.5291 18.0195 10.1562 25 10.1562Z" fill="#0073FA"/>
</g>
</g>
<defs>
<clipPath id="clip0_2149_156">
<rect width="50" height="50" fill="white"/>
</clipPath>
</defs>
</svg>
