<svg width="30" height="28" viewBox="0 0 30 28" fill="none" xmlns="http://www.w3.org/2000/svg">
<path d="M29.2041 13.9756L29.2256 13.9756L29.2061 13.9766M29.2041 13.9756L29.2061 13.9766M29.2041 13.9756L29.2061 13.9766M29.2041 13.9756L29.1797 13.9756L29.2061 13.9766M0.500001 13.9785C0.511009 12.9556 0.709335 11.9349 1.10059 10.9727C1.15235 10.8453 1.26192 10.5953 1.32227 10.459C2.33941 8.15986 3.60995 5.99006 5.08105 3.98828L5.08105 3.9873C5.08523 3.9816 5.09485 3.96884 5.10352 3.95703C5.10788 3.95108 5.1121 3.94469 5.11523 3.94043C5.11603 3.93935 5.11659 3.93831 5.11719 3.9375L5.11914 3.93555L5.11816 3.9375L5.12012 3.93457C6.41787 2.19501 8.35359 1.0496 10.4902 0.75L10.4912 0.75L10.6729 0.728515C11.9659 0.579536 13.2796 0.500017 14.6113 0.499999C15.9432 0.499999 17.2575 0.579509 18.5508 0.728515C18.6176 0.736272 18.6717 0.742706 18.7324 0.749999C20.7317 1.03013 22.5552 2.05053 23.8447 3.60547L24.0957 3.92383C24.0964 3.9248 24.0988 3.92751 24.1025 3.93262L24.1553 4.00586L24.1563 4.00683C25.7082 6.122 27.0321 8.41213 28.0742 10.8555L28.125 10.9707C28.5145 11.9286 28.7128 12.9439 28.7246 13.9619L28.7236 13.9775L28.7246 13.9941C28.7142 14.8841 28.5614 15.7719 28.2627 16.6211L28.125 16.9854C28.1003 17.0436 28.1082 17.02 28.0742 17.0996C27.0321 19.543 25.7082 21.8331 24.1563 23.9482L24.1553 23.9502L24.1201 23.999C24.1137 24.0079 24.1073 24.0159 24.1025 24.0225L24.0957 24.0312C22.8773 25.6589 21.0996 26.765 19.1221 27.1416L18.7236 27.207L18.5508 27.2266C17.2575 27.3756 15.9432 27.4551 14.6113 27.4551C13.2796 27.4551 11.9659 27.3755 10.6729 27.2266C10.6092 27.2192 10.5573 27.2138 10.5 27.207C8.3594 26.9095 6.41985 25.7629 5.12012 24.0205L5.11914 24.0195C5.11832 24.0184 5.1168 24.0168 5.11524 24.0146C5.11212 24.0104 5.10786 24.0049 5.10352 23.999C5.0949 23.9873 5.08533 23.9746 5.08106 23.9687L5.08106 23.9678C3.60992 21.966 2.33943 19.7953 1.32227 17.4961C1.26189 17.3597 1.15232 17.1097 1.10059 16.9824C0.709584 16.0207 0.511194 15.0009 0.500001 13.9785Z" stroke="white"/>
<path d="M8.66954 13.9044L14.7183 7.85568L20.767 13.9044" stroke="white" stroke-miterlimit="10"/>
<path d="M14.7161 20.7598L14.7161 7.856" stroke="white" stroke-miterlimit="10"/>
</svg>
