<svg width="24" height="25" viewBox="0 0 24 25" fill="none" xmlns="http://www.w3.org/2000/svg">
<path d="M11.958 24.9785V25L11.957 24.9805M11.958 24.9785L11.957 24.9805M11.958 24.9785L11.957 24.9805M11.958 24.9785V24.9609L11.957 24.9805M11.9561 0.5C12.8219 0.509438 13.6858 0.677734 14.5 1.00879C14.6079 1.05264 14.8209 1.14567 14.9375 1.19727C16.8991 2.06512 18.7508 3.14896 20.459 4.4043L20.46 4.40527C20.4649 4.40889 20.4763 4.41645 20.4863 4.42383C20.4912 4.42739 20.4955 4.431 20.499 4.43359C20.5008 4.43493 20.503 4.43585 20.5039 4.43652L20.502 4.43555L20.5039 4.4375C21.8868 5.46906 22.827 6.97674 23.1465 8.6543L23.2012 8.99219C23.2069 9.04008 23.2115 9.08264 23.2178 9.13672V9.13769C23.3449 10.2414 23.4131 11.3625 23.4131 12.499C23.4131 13.3516 23.3754 14.1958 23.3027 15.0303L23.2178 15.8613C23.2115 15.9157 23.2069 15.9587 23.2012 16.0068C22.9498 17.8148 21.9832 19.4535 20.5137 20.5537C20.5129 20.5543 20.5107 20.5557 20.5068 20.5586C20.5012 20.5627 20.4941 20.5686 20.4863 20.5742C20.4711 20.5852 20.4533 20.598 20.4443 20.6045L20.4434 20.6055C18.6382 21.93 16.6834 23.0601 14.5986 23.9492C14.5249 23.9807 14.5538 23.9692 14.502 23.9912C13.6919 24.3206 12.8329 24.4887 11.9717 24.499L11.9561 24.498L11.9404 24.499C11.0795 24.4886 10.2209 24.3205 9.41113 23.9912C9.35915 23.9691 9.38829 23.9807 9.31445 23.9492C7.22965 23.0601 5.27489 21.93 3.46973 20.6055L3.46875 20.6045L3.42676 20.5742C3.41898 20.5686 3.41188 20.5627 3.40625 20.5586C3.40236 20.5558 3.40023 20.5543 3.39941 20.5537C1.93221 19.4553 0.965143 17.8202 0.711914 16.0156H0.712891C0.706649 15.9636 0.701073 15.9183 0.694336 15.8604C0.567189 14.7568 0.5 13.6354 0.5 12.499C0.500006 11.6467 0.537705 10.8029 0.610352 9.96875L0.694336 9.13769C0.701102 9.07951 0.706621 9.03464 0.712891 8.98242L0.711914 8.98144C0.965965 7.17352 1.93689 5.53571 3.40918 4.4375L3.41113 4.43555L3.40918 4.43652C3.41009 4.43585 3.41224 4.43493 3.41406 4.43359C3.41759 4.431 3.42191 4.42738 3.42676 4.42383C3.43682 4.41645 3.44816 4.4089 3.45312 4.40527L3.4541 4.4043C5.1623 3.14896 7.01395 2.06512 8.97559 1.19727C9.0922 1.14566 9.30524 1.05264 9.41309 1.00879C10.227 0.677853 11.0905 0.509549 11.9561 0.5Z" stroke="#050042"/>
<path d="M11.6663 17.4122L15.9883 13.0902H6.15648V12.0903H15.9842L11.6663 7.77236L12.3734 7.06525L17.9004 12.5923L12.3734 18.1193L11.6663 17.4122Z" fill="#050042"/>
</svg>
