<svg width="167" height="176" viewBox="0 0 167 176" fill="none" xmlns="http://www.w3.org/2000/svg">
<path d="M164.707 63.688C164.664 63.3211 164.625 62.9532 164.581 62.5867C162.704 48.9459 155.47 36.59 144.483 28.3131C144.46 28.2956 144.221 28.1184 144.151 28.0667C132.09 19.1157 119.011 11.3836 105.148 5.18965C104.339 4.82813 102.815 4.15679 102.012 3.827C95.9356 1.332 89.4985 0.0680973 83.0527 0C83.0489 0 83.045 0.000355195 83.0412 0.000355195C83.0374 0.000355195 83.0335 0 83.0297 0C76.5838 0.0680972 70.1467 1.332 64.0708 3.827C63.2674 4.15679 61.7435 4.82813 60.9346 5.18965C47.0711 11.3836 33.992 19.1157 21.9315 28.0667C21.8616 28.1184 21.6222 28.2956 21.5993 28.3131C10.612 36.59 3.3784 48.9459 1.50127 62.5867C1.45769 62.9532 1.41793 63.3211 1.37569 63.688C0.477548 71.5588 0 79.5582 0 87.6707C0 95.7828 0.477548 103.782 1.37569 111.653C1.41793 112.02 1.45769 112.388 1.50127 112.755C3.37467 126.367 10.5821 138.7 21.5302 146.976C21.5746 147.01 21.9278 147.268 22.0466 147.356C34.7881 156.797 48.5901 164.86 63.3265 171.207C63.5706 171.313 63.8114 171.423 64.0559 171.528C70.1361 174.025 76.5783 175.291 83.0297 175.352C83.0335 175.352 83.0374 175.352 83.0412 175.352C83.045 175.352 83.0489 175.352 83.0527 175.352C89.5041 175.291 95.9462 174.025 102.026 171.528C102.271 171.423 102.512 171.313 102.756 171.207C117.492 164.86 131.294 156.797 144.036 147.356C144.155 147.268 144.508 147.01 144.552 146.976C155.5 138.7 162.708 126.367 164.581 112.755C164.625 112.388 164.664 112.02 164.707 111.653C165.605 103.782 166.082 95.7828 166.082 87.6707C166.082 79.5582 165.605 71.5588 164.707 63.688Z" fill="#5887FF"/>
</svg>
