<svg width="142" height="150" viewBox="0 0 142 150" fill="none" xmlns="http://www.w3.org/2000/svg">
<path d="M140.824 54.4801C140.788 54.1663 140.754 53.8515 140.716 53.538C139.111 41.8693 132.927 31.2998 123.533 24.2197C123.513 24.2047 123.308 24.0531 123.249 24.0089C112.937 16.352 101.754 9.73782 89.9011 4.43934C89.2094 4.13009 87.9065 3.55581 87.2196 3.2737C82.0247 1.13942 76.521 0.0582519 71.0098 0C71.0066 0 71.0032 0.000303842 71 0.000303842C70.9967 0.000303842 70.9934 0 70.9902 0C65.479 0.0582518 59.9752 1.13942 54.7803 3.2737C54.0935 3.55581 52.7905 4.13009 52.0989 4.43934C40.2457 9.73782 29.0631 16.352 18.7514 24.0089C18.6916 24.0531 18.4869 24.2047 18.4673 24.2197C9.07321 31.2998 2.88852 41.8693 1.28358 53.538C1.24632 53.8515 1.21233 54.1663 1.17621 54.4801C0.408302 61.2129 0 68.0558 0 74.9954C0 81.9347 0.408302 88.7776 1.17621 95.5104C1.21233 95.8246 1.24632 96.1393 1.28358 96.4528C2.88533 108.097 9.04771 118.647 18.4083 125.727C18.4462 125.755 18.7482 125.976 18.8498 126.051C29.7437 134.128 41.5444 141.025 54.144 146.455C54.3527 146.545 54.5586 146.639 54.7676 146.729C59.9662 148.865 65.4742 149.948 70.9902 150C70.9934 150 70.9967 150 71 150C71.0032 150 71.0066 150 71.0098 150C76.5258 149.948 82.0338 148.865 87.2324 146.729C87.4413 146.639 87.6473 146.545 87.8559 146.455C100.456 141.025 112.256 134.128 123.15 126.051C123.252 125.976 123.554 125.755 123.592 125.727C132.952 118.647 139.115 108.097 140.716 96.4528C140.754 96.1393 140.788 95.8246 140.824 95.5104C141.592 88.7776 142 81.9347 142 74.9954C142 68.0558 141.592 61.2129 140.824 54.4801Z" fill="#5887FF"/>
</svg>
