<svg width="153" height="181" viewBox="0 0 153 181" fill="none" xmlns="http://www.w3.org/2000/svg">
<path d="M76.5 181C60.1667 181 46.25 178.583 34.75 173.75C23.25 168.75 14.5833 162.25 8.75 154.25C2.91667 146.25 0 137.5 0 128C0 117.167 3.33333 107.833 10 100C16.8333 92.1667 24.4167 86.75 32.75 83.75C26.25 81.0833 20.3333 76.4167 15 69.75C9.83333 63.0833 7.25 55.4167 7.25 46.75C7.25 38.5833 9.91667 31 15.25 24C20.5833 16.8333 28.4167 11.0833 38.75 6.74999C49.25 2.25 61.8333 0 76.5 0C91.1667 0 103.667 2.25 114 6.74999C124.5 11.0833 132.333 16.8333 137.5 24C142.833 31 145.5 38.5833 145.5 46.75C145.5 55.4167 142.833 63.0833 137.5 69.75C132.333 76.4167 126.583 81.0833 120.25 83.75C128.583 86.75 136.083 92.1667 142.75 100C149.417 107.833 152.75 117.167 152.75 128C152.75 137.5 149.833 146.25 144 154.25C138.333 162.25 129.75 168.75 118.25 173.75C106.75 178.583 92.8333 181 76.5 181ZM76.5 71.75C88 71.75 96.6667 69.75 102.5 65.75C108.333 61.75 111.25 56.5 111.25 50C111.25 44.3333 108.25 39.4167 102.25 35.25C96.25 31.0833 87.6667 29 76.5 29C65.1667 29 56.5 31.0833 50.5 35.25C44.6667 39.4167 41.75 44.3333 41.75 50C41.75 56.5 44.6667 61.75 50.5 65.75C56.3333 69.75 65 71.75 76.5 71.75ZM76.5 152C90.5 152 100.917 149.583 107.75 144.75C114.583 139.917 118 133.75 118 126.25C118 118.75 114.583 112.667 107.75 108C100.917 103.167 90.5 100.75 76.5 100.75C62.5 100.75 52.0833 103.167 45.25 108C38.4167 112.667 35 118.75 35 126.25C35 133.75 38.4167 139.917 45.25 144.75C52.0833 149.583 62.5 152 76.5 152Z" fill="white"/>
</svg>
