<svg width="12" height="9" viewBox="0 0 12 9" fill="none" xmlns="http://www.w3.org/2000/svg">
<path d="M6.0005 5.84841C6.35854 5.84841 6.70192 5.70618 6.95509 5.45301C7.20826 5.19984 7.35049 4.85647 7.35049 4.49843C7.35049 4.14039 7.20826 3.79701 6.95509 3.54384C6.70192 3.29067 6.35854 3.14844 6.0005 3.14844C5.64246 3.14844 5.29909 3.29067 5.04592 3.54384C4.79274 3.79701 4.65051 4.14039 4.65051 4.49843C4.65051 4.85647 4.79274 5.19984 5.04592 5.45301C5.29909 5.70618 5.64246 5.84841 6.0005 5.84841Z" fill="#050042" fill-opacity="0.3"/>
<path fill-rule="evenodd" clip-rule="evenodd" d="M0.0425829 4.75097C-0.0141943 4.58592 -0.0141943 4.40662 0.0425829 4.24157C0.471316 3.00262 1.27574 1.9282 2.34383 1.16793C3.41193 0.407668 4.69052 -0.000593568 6.00156 6.47731e-07C7.3126 0.000594864 8.59082 0.410015 9.65822 1.17125C10.7256 1.93248 11.5291 3.00763 11.9567 4.24697C12.0135 4.41202 12.0135 4.59132 11.9567 4.75637C11.5281 5.99564 10.7237 7.07039 9.65554 7.83091C8.58734 8.59143 7.30853 8.99984 5.99726 8.99924C4.68598 8.99865 3.40755 8.58908 2.34003 7.8276C1.27252 7.06611 0.469098 5.99063 0.0416829 4.75097M8.70051 4.49897C8.70051 5.21505 8.41605 5.9018 7.90971 6.40814C7.40336 6.91449 6.71661 7.19895 6.00053 7.19895C5.28445 7.19895 4.5977 6.91449 4.09136 6.40814C3.58502 5.9018 3.30056 5.21505 3.30056 4.49897C3.30056 3.78289 3.58502 3.09614 4.09136 2.5898C4.5977 2.08345 5.28445 1.79899 6.00053 1.79899C6.71661 1.79899 7.40336 2.08345 7.90971 2.5898C8.41605 3.09614 8.70051 3.78289 8.70051 4.49897Z" fill="#050042" />
</svg>
