<svg width="153" height="178" viewBox="0 0 153 178" fill="none" xmlns="http://www.w3.org/2000/svg">
<path d="M75.25 178C61.4167 178 49.0833 176.25 38.25 172.75C27.5833 169.083 19.1667 165.25 13 161.25C6.83333 157.25 2.5 154 0 151.5L21.25 128C25.4167 132.167 31.9167 136.667 40.75 141.5C49.5833 146.167 60.75 148.5 74.25 148.5C88.25 148.5 99 145.833 106.5 140.5C114.167 135.167 118 127.833 118 118.5C118 109.333 114.333 102.083 107 96.75C99.6667 91.25 89.4167 88.5 76.25 88.5C68.25 88.5 61.1667 89.5833 55 91.75C49 93.75 44.5833 95.75 41.75 97.75C39.0833 99.5834 36.4167 101.667 33.75 104L8.75 100L17.5 0H140.25V30.5H47.75L44.25 67.75C48.75 65.5833 54.3333 63.75 61 62.25C67.6667 60.75 74.9167 60 82.75 60C96.75 60 109 62.5 119.5 67.5C130.167 72.5 138.333 79.5 144 88.5C149.833 97.3333 152.75 107.333 152.75 118.5C152.75 130 149.667 140.25 143.5 149.25C137.5 158.25 128.667 165.333 117 170.5C105.333 175.5 91.4167 178 75.25 178Z" fill="white"/>
</svg>
