<svg width="12" height="11" viewBox="0 0 12 11" fill="none" xmlns="http://www.w3.org/2000/svg">
<path d="M11.5738 2.35721H9.34344L9.74531 0.45975C9.75518 0.403842 9.75255 0.346506 9.73759 0.291686C9.72264 0.236867 9.69571 0.185865 9.65867 0.142187C9.62163 0.0985102 9.57535 0.0631945 9.52301 0.0386696C9.47068 0.0141446 9.41353 0.00099242 9.3555 0.000117356H8.55177C8.45888 -0.0021021 8.36806 0.027218 8.29479 0.0830867C8.22152 0.138956 8.17032 0.21792 8.14991 0.306539L7.74001 2.35721H5.56994L5.9718 0.45975C5.98153 0.405107 5.97932 0.349068 5.9653 0.295322C5.95129 0.241575 5.92579 0.191339 5.89048 0.14792C5.85518 0.1045 5.81087 0.068881 5.76047 0.0434061C5.71007 0.0179312 5.65472 0.00317794 5.59807 0.000117356H4.79434C4.70144 -0.0021021 4.61063 0.027218 4.53736 0.0830867C4.46409 0.138956 4.41289 0.21792 4.39248 0.306539L3.99061 2.35721H1.57943C1.48541 2.35536 1.39371 2.38579 1.32028 2.44322C1.24685 2.50064 1.19635 2.58142 1.17756 2.67149L1.0128 3.45719C1.00073 3.51493 1.0021 3.57458 1.01682 3.63173C1.03153 3.68888 1.05921 3.74206 1.0978 3.78733C1.1364 3.83261 1.18492 3.86881 1.23977 3.89327C1.29461 3.91772 1.35439 3.9298 1.41466 3.9286H3.64501L2.98595 7.0714H0.574765C0.48075 7.06954 0.389048 7.09998 0.31562 7.1574C0.242192 7.21483 0.191688 7.2956 0.172901 7.38567L0.00813612 8.17137C-0.00393317 8.22911 -0.00255932 8.28876 0.0121558 8.34591C0.0268709 8.40306 0.0545503 8.45624 0.0931436 8.50152C0.131737 8.54679 0.180255 8.583 0.235104 8.60745C0.289953 8.63191 0.349728 8.64398 0.410001 8.64279H2.65642L2.25456 10.5402C2.24451 10.5971 2.24742 10.6555 2.26306 10.7112C2.27871 10.7668 2.30671 10.8184 2.34508 10.8623C2.38345 10.9062 2.43124 10.9413 2.48505 10.9651C2.53886 10.9888 2.59737 11.0007 2.65642 10.9999H3.46015C3.5496 10.9976 3.63573 10.9663 3.70488 10.9108C3.77404 10.8553 3.82227 10.7788 3.84192 10.6935L4.25986 8.64279H6.42993L6.02806 10.5402C6.01833 10.5949 6.02055 10.6509 6.03456 10.7047C6.04858 10.7584 6.07408 10.8087 6.10938 10.8521C6.14469 10.8955 6.189 10.9311 6.2394 10.9566C6.2898 10.9821 6.34515 10.9968 6.4018 10.9999H7.20553C7.29842 11.0021 7.38923 10.9728 7.4625 10.9169C7.53577 10.861 7.58697 10.7821 7.60739 10.6935L8.02935 8.64279H10.4405C10.5345 8.64464 10.6263 8.61421 10.6997 8.55678C10.7731 8.49936 10.8236 8.41858 10.8424 8.32851L11.0031 7.54281C11.0152 7.48507 11.0138 7.42542 10.9991 7.36827C10.9844 7.31112 10.9567 7.25794 10.9181 7.21267C10.8795 7.1674 10.831 7.13119 10.7762 7.10674C10.7213 7.08228 10.6616 7.0702 10.6013 7.0714H8.35888L9.01392 3.9286H11.4251C11.5191 3.93046 11.6108 3.90002 11.6842 3.8426C11.7577 3.78517 11.8082 3.7044 11.827 3.61433L11.9917 2.82863C12.0042 2.76954 12.0026 2.70845 11.987 2.65008C11.9714 2.59171 11.9422 2.53764 11.9018 2.49205C11.8614 2.44646 11.8108 2.41058 11.7539 2.3872C11.697 2.36382 11.6354 2.35356 11.5738 2.35721ZM6.75142 7.0714H4.58135L5.24041 3.9286H7.41048L6.75142 7.0714Z" fill="#5887FF"/>
</svg>
