<svg width="25" height="25" viewBox="0 0 25 25" fill="none" xmlns="http://www.w3.org/2000/svg">
<path d="M24.5619 9.08002C24.5556 9.02771 24.5497 8.97526 24.5432 8.923C24.2633 6.97822 23.1846 5.21664 21.5461 4.03661C21.5427 4.03412 21.507 4.00885 21.4965 4.00148C19.698 2.72533 17.7476 1.62297 15.6802 0.73989C15.5596 0.688348 15.3323 0.592634 15.2125 0.545615C14.3064 0.189903 13.3465 0.00970864 12.3853 0C12.3847 0 12.3841 5.08337e-05 12.3835 5.08337e-05C12.383 5.08337e-05 12.3824 0 12.3818 0C11.4206 0.00970864 10.4606 0.189903 9.55457 0.545615C9.43477 0.592634 9.20752 0.688348 9.08689 0.73989C7.01949 1.62297 5.06907 2.72533 3.27055 4.00148C3.26012 4.00885 3.22441 4.03412 3.221 4.03661C1.58251 5.21664 0.503806 6.97822 0.223878 8.923C0.21738 8.97526 0.211451 9.02771 0.205151 9.08002C0.071216 10.2022 0 11.3426 0 12.4992C0 13.6558 0.071216 14.7963 0.205151 15.9184C0.211451 15.9708 0.21738 16.0232 0.223878 16.0755C0.50325 18.0162 1.57807 19.7745 3.2107 20.9544C3.21732 20.9592 3.26999 20.9961 3.2877 21.0085C5.18778 22.3546 7.24602 23.5042 9.44359 24.4091C9.47998 24.4241 9.5159 24.4399 9.55235 24.4548C10.4591 24.8108 11.4198 24.9913 12.3818 25C12.3824 25 12.383 25 12.3835 24.9999C12.3841 25 12.3847 25 12.3853 25C13.3473 24.9913 14.308 24.8108 15.2147 24.4548C15.2512 24.4399 15.2871 24.4241 15.3235 24.4091C17.5211 23.5042 19.5793 22.3546 21.4794 21.0085C21.4971 20.9961 21.5498 20.9592 21.5564 20.9544C23.189 19.7745 24.2638 18.0162 24.5432 16.0755C24.5497 16.0232 24.5556 15.9708 24.5619 15.9184C24.6959 14.7963 24.7671 13.6558 24.7671 12.4992C24.7671 11.3426 24.6959 10.2022 24.5619 9.08002Z" fill="#16154E"/>
<line x1="7.9539" y1="8.30111" x2="16.7327" y2="17.0799" stroke="white"/>
<line x1="7.86739" y1="16.9917" x2="16.6462" y2="8.21288" stroke="white"/>
</svg>
