<svg width="13" height="13" viewBox="0 0 13 13" fill="none" xmlns="http://www.w3.org/2000/svg">
<path d="M6.49971 4.33715C5.3016 4.33715 4.33621 5.31167 4.33621 6.50059C4.33621 7.68833 5.31077 8.66401 6.49971 8.66401C7.68869 8.66401 8.66322 7.68833 8.66322 6.50059C8.66322 5.31167 7.68869 4.33715 6.49971 4.33715ZM12.9994 6.50059C12.9994 5.59944 12.9994 4.71778 12.9536 3.81667C12.9066 2.77679 12.6658 1.84814 11.9045 1.09603C11.1432 0.334765 10.2237 0.0928581 9.18376 0.0469889C8.28257 8.54199e-09 7.4009 0 6.49971 0C5.59856 0 4.71686 8.54199e-09 3.81567 0.0469889C2.77578 0.0928581 1.84709 0.334765 1.09496 1.09603C0.333659 1.8573 0.092897 2.77679 0.0458711 3.81667C0 4.71778 0 5.59944 0 6.50059C0 7.40056 0 8.28337 0.0458711 9.18337C0.092897 10.2232 0.33366 11.1519 1.09496 11.904C1.85742 12.6652 2.77578 12.9071 3.81567 12.953C4.71686 13 5.59856 13 6.49971 13C7.4009 13 8.28257 13 9.18376 12.953C10.2237 12.9071 11.1524 12.6652 11.9045 11.904C12.6658 11.1427 12.9066 10.2232 12.9536 9.18337C13.0086 8.29254 12.9994 7.40056 12.9994 6.50059ZM6.49971 9.83341C4.6515 9.83341 3.1656 8.34758 3.1656 6.50059C3.1656 4.65246 4.6515 3.16659 6.49971 3.16659C8.34793 3.16659 9.83386 4.65246 9.83386 6.50059C9.83386 8.34758 8.34793 9.83341 6.49971 9.83341ZM9.97259 3.80746C9.54492 3.80746 9.19292 3.46353 9.19292 3.02786C9.19292 2.59107 9.53575 2.2471 9.97259 2.2471C10.4094 2.2471 10.7522 2.59107 10.7522 3.02786C10.7545 3.12877 10.7362 3.23079 10.6983 3.3248C10.6594 3.41882 10.602 3.50366 10.5298 3.57588C10.4587 3.64813 10.3727 3.70544 10.2787 3.74326C10.1847 3.78227 10.0838 3.80061 9.98176 3.7983L9.97259 3.80746Z" fill="white"/>
</svg>
