<svg width="10" height="9" viewBox="0 0 10 9" fill="none" xmlns="http://www.w3.org/2000/svg">
<path fill-rule="evenodd" clip-rule="evenodd" d="M0.793543 0.828708C1.30096 0.298086 1.98908 0 2.70657 0C3.42406 0 4.11218 0.298086 4.6196 0.828708C4.71881 0.932112 4.84653 1.0608 5.00274 1.21478C5.1586 1.0608 5.28614 0.932112 5.38535 0.828708C5.89064 0.30263 6.574 0.00640599 7.28691 0.00440876C7.99983 0.00241153 8.68469 0.294803 9.19267 0.818042C9.70065 1.34128 9.9907 2.05308 9.99978 2.79876C10.0089 3.54444 9.73624 4.26374 9.24117 4.80035L5.38481 8.83426C5.28333 8.94038 5.1457 9 5.0022 9C4.85871 9 4.72108 8.94038 4.6196 8.83426L0.763237 4.80091C0.268632 4.26732 -0.00548575 3.55164 8.32233e-05 2.80843C0.0056522 2.06522 0.291002 1.35412 0.793543 0.828708Z" fill="#050042" />
</svg>
