<svg width="41" height="46" viewBox="0 0 41 46" fill="none" xmlns="http://www.w3.org/2000/svg">
<g clip-path="url(#clip0_508_139)">
<path d="M20.4411 46L10.2747 40.0027L10.2817 40.0026C8.71247 39.0834 7.18497 38.0802 5.71374 36.9873C5.5375 36.8563 5.20746 36.6085 5.0386 36.4748C3.76147 35.464 2.70106 34.2203 1.89336 32.8251C1.11463 31.4127 0.59075 29.8526 0.372494 28.217C0.343649 28.0008 0.298611 27.5848 0.275762 27.3634C-0.115738 23.5688 -0.0842448 19.7523 0.331207 16.0052L0.342625 15.9019C0.747108 12.4729 2.47923 9.3506 5.14319 7.23402C5.21559 7.17868 5.28875 7.12397 5.36144 7.0688C6.9213 5.88782 8.56022 4.78234 10.2819 3.7667C12.0035 2.75108 13.7599 1.8536 15.5408 1.06382C15.624 1.02704 15.707 0.989634 15.7902 0.953211C18.9096 -0.343002 22.4139 -0.317321 25.5176 1.03078L25.6617 1.09575C29.2333 2.68861 32.643 4.68496 35.8035 7.09965C35.8558 7.13965 35.909 7.17821 35.9612 7.21837C37.2394 8.22992 38.3008 9.4744 39.1077 10.8717C39.8886 12.2844 40.4127 13.8459 40.631 15.4827C40.639 15.549 40.645 15.6153 40.6527 15.6816C41.1191 19.6856 41.1064 23.7009 40.6706 27.6578L40.6537 27.8178C40.2444 31.2382 38.514 34.3519 35.8557 36.4641C35.7832 36.5195 35.71 36.5742 35.6372 36.6293C34.0774 37.8103 32.4385 38.9158 30.7169 39.9315L29.0135 40.943L20.4411 46Z" fill="#050042"/>
<path d="M12.1956 18.8093L20.4976 23.405L30.7054 17.7538L29.7807 16.1164L20.4976 21.2557L17.7975 19.7611L26.0638 15.185L25.1391 13.5476L15.8562 18.6864L13.1845 17.2075C13.2825 17.1331 13.3857 17.0646 13.495 17.0041L21.4223 12.6158L20.4976 10.9785L12.614 15.3426C11.1804 16.1359 10.2898 17.6639 10.2898 19.3299V25.3311C10.2898 26.9968 11.1804 28.5246 12.6139 29.3184L18.3836 32.5122C19.0455 32.8785 19.7715 33.0616 20.4976 33.0616C21.2236 33.0616 21.9497 32.8785 22.6117 32.5122L30.7054 28.0319L29.7807 26.3945L21.7306 30.8507C20.9586 31.2777 20.0366 31.2777 19.2645 30.8507L13.495 27.6569C12.6587 27.1939 12.1393 26.3027 12.1393 25.3311V23.9169L20.4976 28.5436L30.7054 22.8932L29.7807 21.256L20.4976 26.3944L12.1393 21.7677V19.3299C12.1393 19.1524 12.1622 18.9793 12.1956 18.8093Z" fill="white"/>
</g>
<defs>
<clipPath id="clip0_508_139">
<rect width="41" height="46" fill="white"/>
</clipPath>
</defs>
</svg>
