<svg width="25" height="29" viewBox="0 0 25 29" fill="none" xmlns="http://www.w3.org/2000/svg">
<path d="M23.7148 20.6122L16.8492 16.501C14.7123 19.2923 12.3537 21.4811 12.3537 21.4811C12.3537 21.4811 9.99497 19.2923 7.85813 16.501L0.992499 20.6122C0.335834 21.0054 0.335834 21.9569 0.992499 22.3501L10.3269 27.9395C11.5748 28.6868 13.1326 28.6868 14.3804 27.9395L23.7148 22.3501C24.3715 21.9569 24.3715 21.0054 23.7148 20.6122Z" stroke="#050042" stroke-miterlimit="10"/>
<path d="M12.3537 21.4812C12.3537 21.4812 14.7123 19.2923 16.8492 16.501C17.1288 16.1357 17.4052 15.7611 17.6715 15.3786C18.6027 14.0411 20.3559 11.7015 20.3559 8.50237C20.3559 4.08274 16.7732 0.5 12.3537 0.5C7.93413 0.5 4.35138 4.08274 4.35138 8.50237C4.35138 11.7015 6.10458 14.0411 7.03582 15.3786C7.30212 15.7611 7.57847 16.1357 7.85814 16.501C9.99497 19.2923 12.3537 21.4812 12.3537 21.4812ZM12.3537 5.58373C13.6782 5.58373 14.7519 6.65751 14.7519 7.98204C14.7519 9.30658 13.6782 10.3804 12.3537 10.3804C11.0291 10.3804 9.95537 9.30658 9.95537 7.98204C9.95537 6.65751 11.0291 5.58373 12.3537 5.58373Z" stroke="#050042" stroke-miterlimit="10"/>
<path d="M12.3537 10.3806C13.6782 10.3806 14.7519 9.30684 14.7519 7.9823C14.7519 6.65776 13.6782 5.58398 12.3537 5.58398C11.0291 5.58398 9.95538 6.65776 9.95538 7.9823C9.95538 9.30684 11.0291 10.3806 12.3537 10.3806Z" stroke="#050042" stroke-miterlimit="10"/>
</svg>
