<svg width="16" height="16" viewBox="0 0 16 16" fill="none" xmlns="http://www.w3.org/2000/svg">
<path fill-rule="evenodd" clip-rule="evenodd" d="M7.80728 15.1766C6.30714 15.1766 5.61 14.9576 4.39822 14.0816C3.63172 15.0671 1.2045 15.8372 1.09864 14.5196C1.09864 13.5304 0.87964 12.6946 0.63144 11.7821C0.3358 10.6579 0 9.40596 0 7.59194C0 3.25942 3.55508 0 7.76714 0C11.9828 0 15.2861 3.42002 15.2861 7.63208C15.3002 11.779 11.9542 15.1544 7.80728 15.1766ZM7.86934 3.74486C5.81806 3.63902 4.21936 5.05886 3.86532 7.28534C3.57332 9.12858 4.09162 11.3733 4.53326 11.4901C4.74496 11.5412 5.27786 11.1105 5.61 10.7784C6.15923 11.1578 6.7988 11.3857 7.4642 11.439C9.58966 11.5412 11.4058 9.92312 11.5485 7.8C11.6316 5.67236 9.9951 3.87028 7.86934 3.74852V3.74486Z" fill="white"/>
</svg>
