<svg width="154" height="178" viewBox="0 0 154 178" fill="none" xmlns="http://www.w3.org/2000/svg">
<path d="M77 0C92.6667 0 106.25 2.75 117.75 8.25C129.417 13.75 138.333 21.0833 144.5 30.25C150.667 39.25 153.75 49.1667 153.75 60C153.75 68.5 151.917 76.3333 148.25 83.5C144.583 90.5 140.75 96.3333 136.75 101L75.5 178H38.25L85 119.5C81.5 120 77.9167 120.25 74.25 120.25C59.75 120.25 46.8333 117.583 35.5 112.25C24.3333 106.75 15.5833 99.4167 9.25 90.25C3.08333 81.0833 0 71 0 60C0 49.1667 3.08333 39.25 9.25 30.25C15.4167 21.0833 24.25 13.75 35.75 8.25C47.4167 2.75 61.1667 0 77 0ZM77 91C90.3333 91 100.667 88.0833 108 82.25C115.5 76.25 119.25 68.8333 119.25 60C119.25 51.1667 115.5 43.8333 108 38C100.667 32 90.3333 29 77 29C63.5 29 53 32 45.5 38C38.1667 43.8333 34.5 51.1667 34.5 60C34.5 68.8333 38.1667 76.25 45.5 82.25C53 88.0833 63.5 91 77 91Z" fill="white"/>
</svg>
