<svg width="15" height="15" viewBox="0 0 15 15" fill="none" xmlns="http://www.w3.org/2000/svg">
<path d="M9.52968 6.51931V6.52683M2.13629 4.54664C1.8063 4.29302 1.55287 3.95311 1.40399 3.56446C1.25511 3.17581 1.21659 2.75357 1.29268 2.3444C1.36878 1.93523 1.55652 1.55507 1.83516 1.24593C2.1138 0.936784 2.47249 0.710704 2.87159 0.592672C3.27069 0.47464 3.69465 0.469253 4.09662 0.577106C4.49858 0.684959 4.8629 0.901853 5.14931 1.20381C5.43572 1.50578 5.63306 1.88105 5.71952 2.28815C5.80599 2.69526 5.77821 3.11834 5.63925 3.51064" stroke="#050042" stroke-linecap="round" stroke-linejoin="round"/>
<path d="M10.2821 1.25293V4.11413C11.2132 4.65296 11.9221 5.50561 12.2819 6.51941H13.2908C13.4903 6.51941 13.6817 6.59868 13.8228 6.73977C13.9638 6.88087 14.0431 7.07223 14.0431 7.27177V8.77648C14.0431 8.97601 13.9638 9.16738 13.8228 9.30847C13.6817 9.44957 13.4903 9.52883 13.2908 9.52883H12.2811C12.0283 10.2436 11.5987 10.8831 11.0337 11.3894V12.9144C11.0337 13.2137 10.9148 13.5008 10.7032 13.7124C10.4915 13.9241 10.2045 14.043 9.90516 14.043C9.60586 14.043 9.31881 13.9241 9.10717 13.7124C8.89553 13.5008 8.77663 13.2137 8.77663 12.9144V12.4758C8.52803 12.5176 8.27636 12.5385 8.02428 12.5383H5.01486C4.76277 12.5385 4.5111 12.5176 4.2625 12.4758V12.9144C4.2625 13.2137 4.1436 13.5008 3.93196 13.7124C3.72032 13.9241 3.43328 14.043 3.13397 14.043C2.83466 14.043 2.54762 13.9241 2.33598 13.7124C2.12434 13.5008 2.00544 13.2137 2.00544 12.9144V11.3894C1.32378 10.78 0.843257 9.9779 0.627487 9.08935C0.411716 8.20081 0.470868 7.26769 0.797111 6.4135C1.12336 5.55931 1.70131 4.82434 2.45447 4.30586C3.20763 3.78738 4.10049 3.50985 5.01486 3.50999H6.89574L10.2821 1.25293Z" stroke="#050042" stroke-linecap="round" stroke-linejoin="round"/>
</svg>
