<svg width="221" height="233" viewBox="0 0 221 233" fill="none" xmlns="http://www.w3.org/2000/svg">
<path d="M110.431 231.719C118.941 231.629 127.438 229.966 135.458 226.688C136.519 226.254 138.539 225.369 139.615 224.89C148.579 220.902 157.285 216.414 165.721 211.51L167.315 210.583L167.291 210.625L220.394 179.967V126.735C220.393 126.715 220.393 126.685 220.393 126.647C220.392 126.57 220.392 126.457 220.392 126.314C220.391 126.026 220.39 125.616 220.389 125.122C220.386 124.136 220.382 122.819 220.378 121.497C220.37 118.855 220.362 116.192 220.362 116.116C220.362 105.393 219.729 94.8191 218.536 84.4143C218.48 83.9234 218.427 83.4419 218.369 82.9572C215.894 65.0663 206.379 48.8573 191.928 37.9787C191.869 37.9348 191.407 37.5985 191.244 37.4787L191.243 37.4778C174.855 25.3863 157.147 15.0059 138.271 6.74142L136.439 5.94846C136.073 5.79155 135.826 5.67589 135.478 5.52756C127.452 2.24587 118.949 0.582461 110.432 0.50119C101.915 0.58239 93.4104 2.24578 85.3848 5.52756C85.0363 5.67575 84.7886 5.79168 84.4229 5.94846C64.8601 14.3382 46.5363 24.9962 29.6191 37.4778L29.6182 37.4787L28.9365 37.9778C14.7078 48.6881 5.26429 64.5655 2.61328 82.1281L2.49219 82.966L2.32617 84.4143C1.13374 94.8191 0.500013 105.393 0.5 116.116C0.499998 126.17 1.05714 136.093 2.10938 145.867L2.32617 147.82C2.38272 148.308 2.43473 148.785 2.49219 149.267C4.97056 167.199 14.5211 183.443 29.0273 194.323L29.0303 194.326C29.0314 194.327 29.0334 194.328 29.0352 194.329C29.0387 194.332 29.0432 194.336 29.0488 194.34C29.0603 194.349 29.076 194.36 29.0938 194.373C29.1291 194.399 29.1743 194.433 29.2217 194.468C29.316 194.538 29.4187 194.614 29.4658 194.649L29.4668 194.648C45.4792 206.48 62.8437 216.703 81.248 224.89C82.3244 225.369 84.3449 226.254 85.4053 226.688C93.4246 229.966 101.921 231.629 110.431 231.719Z" fill="#4D1EE0" stroke="black"/>
</svg>
