<svg width="244" height="256" viewBox="0 0 244 256" fill="none" xmlns="http://www.w3.org/2000/svg">
<path d="M241.287 92.916C241.225 92.3825 241.167 91.8474 241.103 91.3144C238.357 71.4777 227.773 53.5095 211.697 41.4732C211.664 41.4478 211.314 41.1901 211.211 41.1149C193.565 28.0982 174.429 16.8541 154.145 7.84668C152.961 7.32095 150.732 6.34467 149.556 5.86508C140.666 2.23682 131.248 0.398833 121.817 0.299805C121.811 0.299805 121.806 0.300323 121.8 0.300323C121.794 0.300323 121.789 0.299805 121.783 0.299805C112.352 0.398833 102.934 2.23682 94.0438 5.86508C92.8684 6.34467 90.6388 7.32095 89.4552 7.84668C69.1711 16.8541 50.0347 28.0982 32.3887 41.1149C32.2864 41.1901 31.936 41.4478 31.9025 41.4732C15.8267 53.5095 5.24303 71.4777 2.49655 91.3144C2.43279 91.8474 2.37462 92.3825 2.31281 92.916C0.998717 104.362 0.299988 115.995 0.299988 127.792C0.299988 139.589 0.998717 151.222 2.31281 162.668C2.37462 163.202 2.43279 163.737 2.49655 164.27C5.23758 184.065 15.7831 201.999 31.8015 214.035C31.8664 214.084 32.3832 214.46 32.557 214.587C51.1994 228.317 71.3936 240.042 92.9549 249.273C93.312 249.426 93.6644 249.587 94.022 249.739C102.918 253.37 112.344 255.211 121.783 255.3C121.789 255.3 121.794 255.3 121.8 255.299C121.806 255.3 121.811 255.3 121.817 255.3C131.256 255.211 140.682 253.37 149.578 249.739C149.936 249.587 150.288 249.426 150.645 249.273C172.206 240.042 192.401 228.317 211.043 214.587C211.217 214.46 211.734 214.084 211.798 214.035C227.817 201.999 238.362 184.065 241.103 164.27C241.167 163.737 241.225 163.202 241.287 162.668C242.601 151.222 243.3 139.589 243.3 127.792C243.3 115.995 242.601 104.362 241.287 92.916Z" stroke="white" stroke-opacity="0.6" stroke-width="0.6"/>
</svg>
