<svg width="295" height="310" viewBox="0 0 295 310" fill="none" xmlns="http://www.w3.org/2000/svg">
<path d="M0 239.992L71.462 281.223C83.235 288.146 95.42 294.445 107.975 300.026C109.408 300.662 112.108 301.846 113.532 302.428C124.298 306.827 135.705 309.055 147.127 309.176C147.133 309.176 147.14 309.175 147.147 309.175C158.562 309.052 169.961 306.824 180.721 302.428C182.145 301.846 184.845 300.662 186.275 300.026C198.245 294.706 209.865 288.721 221.125 282.179L221.095 282.223L294.295 239.992L294.245 155.191C294.245 154.992 294.255 154.796 294.255 154.598V154.588C294.255 140.288 293.405 126.187 291.815 112.313C291.745 111.665 291.675 111.017 291.595 110.37C288.275 86.369 275.505 64.6242 256.105 50.0314C256.025 49.9723 255.395 49.5172 255.185 49.3626C232.605 32.716 208.155 18.4991 182.04 7.3077C181.608 7.1229 181.181 6.9268 180.748 6.7432C169.98 2.3429 158.572 0.111301 147.147 0.000600815C147.14 0.000600815 147.133 0 147.127 0C135.695 0.1081 124.279 2.3404 113.506 6.7432C113.072 6.9268 112.646 7.1229 112.213 7.3077C86.1 18.4991 61.644 32.716 39.066 49.3626C38.855 49.5172 38.23 49.9723 38.151 50.0314C18.751 64.6242 5.98003 86.369 2.66003 110.37C2.58303 111.017 2.51201 111.665 2.43701 112.313C0.846012 126.187 0 140.288 0 154.588C0 154.591 0 154.594 0 154.598C0 154.769 0.00299072 154.94 0.00299072 155.112L0 155.106V239.992Z" fill="#050042"/>
</svg>
