<svg width="210" height="78" viewBox="0 0 210 78" fill="none" xmlns="http://www.w3.org/2000/svg">
<path d="M167 0C168.011 0 169.01 0.054665 169.993 0.15918C170.824 0.0624662 171.66 0.00869454 172.495 0H172.505C175.416 0.0302898 178.323 0.592412 181.066 1.70215C181.429 1.84885 182.118 2.14778 182.483 2.30859C188.744 5.06371 194.65 8.50298 200.096 12.4844C200.127 12.5072 200.234 12.585 200.246 12.5938C205.208 16.2754 208.475 21.7721 209.322 27.8398C209.342 28.0028 209.36 28.1669 209.379 28.3301C209.784 31.831 210 35.3896 210 38.998C210 42.6062 209.784 46.1642 209.379 49.665C209.36 49.8283 209.342 49.9923 209.322 50.1553C208.476 56.2103 205.221 61.6964 200.277 65.3779C200.257 65.3929 200.098 65.508 200.044 65.5469C194.29 69.7466 188.057 73.3329 181.402 76.1562C181.292 76.203 181.184 76.2524 181.073 76.2988C178.328 77.4096 175.418 77.9727 172.505 78H172.495C171.656 77.9921 170.818 77.9378 169.983 77.8408C169.003 77.9447 168.008 78 167 78H28C12.536 78 3.54365e-07 65.464 0 50V28C0 12.536 12.536 6.6842e-07 28 0H167Z" fill="white"/>
</svg>
