<svg width="315" height="332" viewBox="0 0 315 332" fill="none" xmlns="http://www.w3.org/2000/svg">
<path d="M2.60884 120.262C2.68895 119.569 2.76435 118.874 2.84698 118.182C6.40665 92.424 20.1239 69.0925 40.9595 53.4634C41.003 53.4304 41.457 53.0958 41.5896 52.9982C64.4603 36.096 89.2627 21.4956 115.552 9.79957C117.087 9.11691 119.976 7.84922 121.5 7.22648C133.022 2.5152 145.229 0.128587 157.452 0C157.459 0 157.467 0.000673274 157.474 0.000673274C157.481 0.000673274 157.489 0 157.496 0C169.719 0.128587 181.926 2.5152 193.448 7.22648C194.972 7.84922 197.862 9.11691 199.396 9.79957C225.685 21.4956 250.488 36.096 273.358 52.9982C273.491 53.0958 273.945 53.4304 273.989 53.4634C294.824 69.0925 308.541 92.424 312.101 118.182C312.184 118.874 312.259 119.569 312.339 120.262C314.042 135.124 314.948 150.229 314.948 165.548C314.948 180.866 314.042 195.971 312.339 210.834C312.259 211.527 312.184 212.222 312.101 212.914C308.548 238.618 294.881 261.906 274.119 277.534C274.035 277.597 273.365 278.085 273.14 278.25C248.978 296.079 222.805 311.304 194.86 323.29C194.397 323.488 193.94 323.698 193.477 323.895C181.946 328.61 169.73 331 157.496 331.116C157.489 331.116 157.481 331.116 157.474 331.115C157.467 331.116 157.459 331.116 157.452 331.116C145.218 331 133.002 328.61 121.472 323.895C121.008 323.698 120.551 323.488 120.088 323.29C92.1433 311.304 65.9699 296.079 41.8078 278.25C41.5826 278.085 40.9127 277.597 40.8286 277.534C20.0674 261.906 6.39958 238.618 2.84698 212.914C2.76435 212.222 2.68895 211.527 2.60884 210.834C0.905664 195.971 6.00857e-05 180.866 6.00857e-05 165.548C6.00857e-05 150.229 0.905664 135.124 2.60884 120.262Z" fill="#4D1EE0"/>
</svg>
