<svg width="154" height="178" viewBox="0 0 154 178" fill="none" xmlns="http://www.w3.org/2000/svg">
<path d="M79.5 57.75C94 57.75 106.833 60.5 118 66C129.333 71.3333 138.083 78.5833 144.25 87.75C150.583 96.9167 153.75 107 153.75 118C153.75 128.833 150.667 138.833 144.5 148C138.333 157 129.417 164.25 117.75 169.75C106.25 175.25 92.6667 178 77 178C61.1667 178 47.4167 175.25 35.75 169.75C24.25 164.25 15.4167 157 9.25 148C3.08333 138.833 0 128.833 0 118C0 109.5 1.83333 101.75 5.5 94.75C9.16667 87.5833 13 81.6667 17 77L78.25 0H115.5L68.75 58.5C72.25 58 75.8333 57.75 79.5 57.75ZM77 149C90.3333 149 100.667 146.083 108 140.25C115.5 134.25 119.25 126.833 119.25 118C119.25 109.167 115.5 101.833 108 96C100.667 90 90.3333 87 77 87C63.5 87 53 90 45.5 96C38.1667 101.833 34.5 109.167 34.5 118C34.5 126.833 38.1667 134.25 45.5 140.25C53 146.083 63.5 149 77 149Z" fill="white"/>
</svg>
