<svg width="943" height="1029" viewBox="0 0 943 1029" fill="none" xmlns="http://www.w3.org/2000/svg">
<path d="M935.189 655.266C934.949 657.419 934.723 659.578 934.476 661.729C923.818 741.776 882.746 814.283 820.361 862.853C820.231 862.956 818.872 863.996 818.475 864.299C749.997 916.825 675.735 962.199 597.019 998.546C592.426 1000.67 583.773 1004.61 579.212 1006.54C544.713 1021.18 508.164 1028.6 471.565 1029C471.544 1029 471.522 1029 471.5 1029C471.478 1029 471.456 1029 471.435 1029C434.836 1028.6 398.286 1021.18 363.788 1006.54C359.226 1004.61 350.574 1000.67 345.981 998.546C267.265 962.199 193.003 916.825 124.525 864.299C124.128 863.996 122.769 862.956 122.639 862.853C60.2538 814.283 19.1822 741.776 8.52405 661.729C8.27664 659.578 8.05088 657.419 7.81102 655.266C2.71147 609.079 0 562.137 0 514.531C0 466.928 2.71147 419.985 7.81102 373.798C8.05088 371.643 8.27664 369.484 8.52405 367.333C19.1611 287.454 60.0844 215.083 122.247 166.515C122.498 166.318 124.504 164.802 125.178 164.289C197.523 108.884 275.89 61.5689 359.562 24.3217C360.948 23.7045 362.315 23.0538 363.703 22.4408C398.226 7.78712 434.804 0.359795 471.435 -6.07371e-05C471.456 -6.07371e-05 471.478 -7.73708e-05 471.5 0.00201446C471.522 -7.73708e-05 471.544 -6.07371e-05 471.565 -6.07371e-05C508.196 0.359795 544.774 7.78712 579.297 22.4408C580.684 23.0538 582.052 23.7045 583.438 24.3217C667.11 61.5689 745.477 108.884 817.822 164.289C818.496 164.802 820.501 166.318 820.753 166.515C882.916 215.083 923.839 287.454 934.476 367.333C934.723 369.484 934.949 371.643 935.189 373.798C940.288 419.985 943 466.928 943 514.531C943 562.137 940.288 609.079 935.189 655.266Z" fill="#4D1EE0"/>
</svg>
