<svg width="16" height="16" viewBox="0 0 16 16" fill="none" xmlns="http://www.w3.org/2000/svg">
<path d="M7.99965 5.33803C6.52505 5.33803 5.33687 6.53744 5.33687 8.00073C5.33687 9.46256 6.53633 10.6634 7.99965 10.6634C9.463 10.6634 10.6624 9.46256 10.6624 8.00073C10.6624 6.53744 9.463 5.33803 7.99965 5.33803ZM15.9993 8.00073C15.9993 6.89162 15.9993 5.8065 15.9428 4.69743C15.885 3.41758 15.5887 2.27463 14.6517 1.34896C13.7147 0.412019 12.583 0.114287 11.3031 0.0578325C10.1939 1.05132e-08 9.1088 0 7.99965 0C6.89054 0 5.80537 1.05132e-08 4.69621 0.0578325C3.41635 0.114287 2.27335 0.412019 1.34764 1.34896C0.410658 2.28591 0.114335 3.41758 0.0564568 4.69743C0 5.8065 0 6.89162 0 8.00073C0 9.10838 0 10.1949 0.0564568 11.3026C0.114335 12.5824 0.410658 13.7254 1.34764 14.651C2.28605 15.588 3.41635 15.8857 4.69621 15.9422C5.80537 16 6.89054 16 7.99965 16C9.1088 16 10.1939 16 11.3031 15.9422C12.583 15.8857 13.726 15.588 14.6517 14.651C15.5887 13.7141 15.885 12.5824 15.9428 11.3026C16.0106 10.2062 15.9993 9.10838 15.9993 8.00073ZM7.99965 12.1027C5.72492 12.1027 3.89613 10.2739 3.89613 8.00073C3.89613 5.7261 5.72492 3.89734 7.99965 3.89734C10.2744 3.89734 12.1032 5.7261 12.1032 8.00073C12.1032 10.2739 10.2744 12.1027 7.99965 12.1027ZM12.274 4.68611C11.7476 4.68611 11.3144 4.26281 11.3144 3.7266C11.3144 3.18901 11.7363 2.76567 12.274 2.76567C12.8116 2.76567 13.2335 3.18901 13.2335 3.7266C13.2363 3.85079 13.2137 3.97636 13.1672 4.09207C13.1192 4.20778 13.0486 4.3122 12.9598 4.40108C12.8722 4.49 12.7664 4.56054 12.6507 4.60709C12.535 4.6551 12.4108 4.67767 12.2852 4.67483L12.274 4.68611Z" fill="#050042"/>
</svg>
