<svg width="23" height="24" viewBox="0 0 23 24" fill="none" xmlns="http://www.w3.org/2000/svg">
<g clip-path="url(#clip0_249_512)">
<path d="M13.7467 13.404C13.0874 14.0633 13.0874 15.1246 13.0874 17.2449V17.6217C13.0874 19.7421 13.0874 20.8033 13.7467 21.4626C14.4061 22.122 15.4673 22.122 17.5877 22.122H17.9624C20.0848 22.122 21.1461 22.122 21.8033 21.4626C22.4606 20.8033 22.4648 19.7421 22.4648 17.6217V17.247C22.4648 15.1246 22.4648 14.0633 21.8054 13.4061C21.1461 12.7488 20.0848 12.7446 17.9645 12.7446H17.5877C15.4673 12.7446 14.4061 12.7446 13.7467 13.404ZM14.6698 15.5976H15.7394C15.775 17.3873 16.5641 18.145 17.19 18.302V15.5976H18.1989V17.1403C18.8164 17.0733 19.4653 16.37 19.683 15.5976H20.6919C20.6102 15.9995 20.4449 16.3784 20.2083 16.7133C19.9718 17.0482 19.6704 17.3307 19.3187 17.5422C19.7102 17.7368 20.0555 18.011 20.3318 18.348C20.6081 18.685 20.8112 19.0785 20.9242 19.4993H19.8148C19.7123 19.133 19.505 18.8064 19.2162 18.5573C18.9273 18.3083 18.5736 18.1513 18.1968 18.1052V19.4993H18.0754C15.9383 19.4993 14.7201 18.034 14.6677 15.5955L14.6698 15.5976Z" fill="white" fill-opacity="0.8"/>
</g>
<g clip-path="url(#clip1_249_512)">
<path d="M6.0894 0.935059C6.61524 0.936461 6.88213 0.939265 7.11256 0.945809L7.20324 0.949081C7.30794 0.95282 7.41123 0.957494 7.53603 0.963103C8.03335 0.986473 8.37269 1.065 8.67043 1.18045C8.97892 1.29917 9.2388 1.45996 9.49867 1.71937C9.73644 1.95295 9.92036 2.23561 10.0376 2.54761C10.153 2.84535 10.2316 3.18469 10.2549 3.68248C10.2605 3.80681 10.2652 3.91011 10.269 4.01527L10.2718 4.10595C10.2788 4.33592 10.2816 4.6028 10.2825 5.12864L10.283 5.47732V6.08963C10.2841 6.43056 10.2805 6.77148 10.2722 7.11231L10.2694 7.20299C10.2657 7.30816 10.261 7.41146 10.2554 7.53579C10.232 8.03357 10.1526 8.37244 10.0376 8.67065C9.92036 8.98266 9.73644 9.26532 9.49867 9.4989C9.2651 9.73666 8.98244 9.92058 8.67043 10.0378C8.37269 10.1533 8.03335 10.2318 7.53603 10.2552L7.20324 10.2692L7.11256 10.272C6.88213 10.2785 6.61524 10.2818 6.0894 10.2827L5.74072 10.2832H5.12888C4.7878 10.2844 4.44671 10.2808 4.10573 10.2725L4.01505 10.2697C3.90409 10.2654 3.79316 10.2606 3.68226 10.2552C3.18494 10.2318 2.8456 10.1533 2.54739 10.0378C2.23555 9.92052 1.95306 9.73661 1.71961 9.4989C1.48168 9.26536 1.2976 8.9827 1.18023 8.67065C1.06478 8.37291 0.986251 8.03357 0.962881 7.53579L0.948858 7.20299L0.946521 7.11231C0.937905 6.77149 0.93401 6.43056 0.934836 6.08963V5.12864C0.933542 4.78771 0.93697 4.44678 0.945119 4.10595L0.948391 4.01527C0.95213 3.91011 0.956804 3.80681 0.962413 3.68248C0.985784 3.18469 1.06431 2.84582 1.17976 2.54761C1.2974 2.23548 1.48181 1.95281 1.72008 1.71937C1.95339 1.48171 2.23572 1.2978 2.54739 1.18045C2.8456 1.065 3.18447 0.986473 3.68226 0.963103C3.80659 0.957494 3.91035 0.95282 4.01505 0.949081L4.10573 0.946276C4.44656 0.937972 4.78749 0.934388 5.12842 0.935526L6.0894 0.935059ZM5.60891 3.2721C4.98909 3.2721 4.39465 3.51832 3.95638 3.9566C3.5181 4.39488 3.27187 4.98931 3.27187 5.60913C3.27187 6.22895 3.5181 6.82339 3.95638 7.26167C4.39465 7.69995 4.98909 7.94617 5.60891 7.94617C6.22873 7.94617 6.82317 7.69995 7.26144 7.26167C7.69972 6.82339 7.94595 6.22895 7.94595 5.60913C7.94595 4.98931 7.69972 4.39488 7.26144 3.9566C6.82317 3.51832 6.22873 3.2721 5.60891 3.2721ZM5.60891 4.20691C5.79305 4.20688 5.9754 4.24312 6.14553 4.31356C6.31567 4.384 6.47027 4.48726 6.6005 4.61745C6.73073 4.74763 6.83404 4.9022 6.90454 5.07231C6.97504 5.24242 7.01134 5.42476 7.01137 5.6089C7.0114 5.79304 6.97516 5.97539 6.90472 6.14552C6.83428 6.31566 6.73102 6.47026 6.60083 6.60049C6.47064 6.73072 6.31608 6.83403 6.14597 6.90453C5.97585 6.97502 5.79352 7.01132 5.60938 7.01135C5.23749 7.01135 4.88082 6.86362 4.61786 6.60065C4.35489 6.33769 4.20716 5.98103 4.20716 5.60913C4.20716 5.23724 4.35489 4.88058 4.61786 4.61761C4.88082 4.35464 5.23749 4.20691 5.60938 4.20691M8.06327 2.57098C7.90831 2.57098 7.7597 2.63254 7.65013 2.74211C7.54056 2.85168 7.47901 3.00029 7.47901 3.15524C7.47901 3.3102 7.54056 3.45881 7.65013 3.56838C7.7597 3.67795 7.90831 3.7395 8.06327 3.7395C8.21822 3.7395 8.36683 3.67795 8.4764 3.56838C8.58597 3.45881 8.64753 3.3102 8.64753 3.15524C8.64753 3.00029 8.58597 2.85168 8.4764 2.74211C8.36683 2.63254 8.21822 2.57098 8.06327 2.57098Z" fill="white" fill-opacity="0.8"/>
</g>
<path d="M17.7009 1.16846C16.4753 1.17418 15.3019 1.66504 14.4373 2.53367C13.5728 3.40231 13.0874 4.578 13.0874 5.80357C13.0874 7.03288 13.5757 8.21184 14.445 9.08109C15.3142 9.95035 16.4932 10.4387 17.7225 10.4387C18.9518 10.4387 20.1308 9.95035 21 9.08109C21.8693 8.21184 22.3576 7.03288 22.3576 5.80357C22.3576 4.57426 21.8693 3.3953 21 2.52605C20.1308 1.6568 18.9518 1.16846 17.7225 1.16846L17.7009 1.16846ZM19.6175 3.9588C19.6561 3.95802 19.7415 3.96768 19.7971 4.01287C19.8343 4.04482 19.8579 4.0897 19.8632 4.13841C19.8693 4.17433 19.8771 4.2566 19.8709 4.32072C19.8014 5.05384 19.4993 6.83218 19.3456 7.65298C19.2807 8.00062 19.1528 8.11688 19.0288 8.12808C18.76 8.15319 18.5557 7.9504 18.295 7.77968C17.8871 7.512 17.6565 7.34552 17.2606 7.08441C16.8028 6.78313 17.0995 6.61704 17.3602 6.34665C17.4286 6.27558 18.6144 5.19676 18.6376 5.09904C18.6403 5.08667 18.643 5.0411 18.6159 5.01715C18.5889 4.9932 18.5487 5.00131 18.5198 5.00788C18.4788 5.01741 17.8272 5.44808 16.5649 6.29992C16.3795 6.42738 16.2119 6.48918 16.062 6.48532C15.8967 6.48223 15.5784 6.39223 15.3416 6.31537C15.0511 6.22073 14.8205 6.17091 14.8406 6.01061C14.8509 5.92718 14.9659 5.84181 15.1856 5.75452C16.5367 5.16586 17.4377 4.7778 17.8886 4.59033C19.1756 4.05498 19.4433 3.96189 19.6175 3.9588Z" fill="white" fill-opacity="0.8"/>
<g clip-path="url(#clip2_249_512)">
<path d="M5.53179 13.3984C0.708157 13.3984 0.624023 13.8902 0.624023 17.7609C0.624023 21.6316 0.708157 22.1234 5.53179 22.1234C10.3554 22.1234 10.4396 21.6316 10.4396 17.7609C10.4396 13.8902 10.3554 13.3984 5.53179 13.3984ZM7.10228 17.9513L4.90079 19.141C4.70448 19.2441 4.55024 19.1252 4.55024 18.8793V16.6425C4.55024 16.3966 4.71149 16.2777 4.90079 16.3808L7.10228 17.5705C7.29859 17.6736 7.29859 17.8481 7.10228 17.9513Z" fill="white" fill-opacity="0.8"/>
</g>
<defs>
<clipPath id="clip0_249_512">
<rect width="9.37736" height="10.717" fill="white" transform="translate(13.0874 12.0747)"/>
</clipPath>
<clipPath id="clip1_249_512">
<rect width="11.2178" height="11.2178" fill="white"/>
</clipPath>
<clipPath id="clip2_249_512">
<rect width="11.2178" height="11.2178" fill="white" transform="translate(0 12.0747)"/>
</clipPath>
</defs>
</svg>
