<svg width="17" height="14" viewBox="0 0 17 14" fill="none" xmlns="http://www.w3.org/2000/svg">
<path d="M16.7434 0.181613C16.5556 0.030581 16.2669 -0.00242227 16.1367 0.000134238C15.5491 0.0102831 14.6448 0.322535 10.2981 2.11986C8.77547 2.74816 5.73162 4.05047 1.169 6.02679C0.426889 6.32002 0.0386408 6.60686 0.00410386 6.88611C-0.0635667 7.42431 0.714333 7.59184 1.69532 7.90917C2.49489 8.16684 3.57037 8.46895 4.12858 8.4791C4.63439 8.49304 5.20156 8.28487 5.82744 7.85715C10.0898 4.99865 12.2907 3.5529 12.4299 3.52118C12.527 3.49832 12.6636 3.47167 12.7543 3.55166C12.8451 3.63289 12.8361 3.7852 12.8271 3.82707C12.7492 4.15455 8.74358 7.77588 8.5136 8.01453C7.63224 8.92208 6.63083 9.4793 8.17641 10.4897C9.51376 11.3668 10.2929 11.9253 11.6699 12.8239C12.55 13.3964 13.241 14.0767 14.1492 13.993C14.5682 13.9549 14.9998 13.5652 15.2183 12.3987C15.7381 9.64432 16.7575 3.67476 16.9925 1.21486C17.013 0.999063 16.9874 0.72361 16.967 0.603024C16.949 0.439286 16.8686 0.289532 16.7434 0.181613Z" fill="#050042"/>
</svg>
