<svg width="17" height="10" viewBox="0 0 17 10" fill="none" xmlns="http://www.w3.org/2000/svg">
<path fill-rule="evenodd" clip-rule="evenodd" d="M8.09444 9.4H9.09444C9.09444 9.4 9.39444 9.35 9.54444 9.2C9.69444 9.05 9.69444 8.75 9.69444 8.75C9.69444 8.75 9.69444 7.45 10.2944 7.25C10.8944 7.05 11.6944 8.55 12.4944 9.1C13.0944 9.55 13.5444 9.45 13.5444 9.45L15.7444 9.4C15.7444 9.4 16.8944 9.35 16.3444 8.4C16.2944 8.35 16.0444 7.75 14.6944 6.5C13.2944 5.2 13.4944 5.45 15.1444 3.2C16.1444 1.85 16.5444 1.05 16.4444 0.65C16.3444 0.3 15.5944 0.4 15.5944 0.4H13.0944C13.0944 0.4 12.8944 0.35 12.7944 0.45C12.6444 0.55 12.5944 0.7 12.5944 0.7C12.5944 0.7 12.1944 1.75 11.6944 2.65C10.5944 4.5 10.1444 4.6 9.99444 4.5C9.59444 4.25 9.69444 3.4 9.69444 2.85C9.69444 1.05 9.99444 0.299999 9.14444 0.0999994C8.89444 0.0499994 8.69444 0 7.99444 0C7.09444 0 6.34444 -1.93715e-07 5.94444 0.2C5.64444 0.35 5.44444 0.65 5.59444 0.65C5.74444 0.65 6.14444 0.75 6.34444 1C6.54444 1.45 6.54444 2.2 6.54444 2.2C6.54444 2.2 6.69444 4.35 6.19444 4.6C5.84444 4.8 5.39444 4.4 4.39444 2.7C3.89444 1.85 3.49444 0.849999 3.49444 0.849999C3.49444 0.849999 3.44444 0.65 3.29444 0.55C3.14444 0.45 2.89444 0.4 2.89444 0.4H0.544444C0.544444 0.4 0.194444 0.4 0.0444444 0.55C-0.0555556 0.7 0.0444444 0.95 0.0444444 0.95C0.0444444 0.95 1.89444 5.25 3.99444 7.45C5.94444 9.55 8.09444 9.4 8.09444 9.4Z" fill="#050042"/>
</svg>
