<svg width="11" height="11" viewBox="0 0 11 11" fill="none" xmlns="http://www.w3.org/2000/svg">
<path d="M3.87467 1.846C4.56096 0.615333 4.90384 0 5.41679 0C5.92975 0 6.27263 0.615333 6.95892 1.846L7.13658 2.1645C7.33158 2.51442 7.42908 2.68937 7.58075 2.80475C7.73242 2.92012 7.922 2.96292 8.30117 3.0485L8.64567 3.1265C9.97817 3.42821 10.6439 3.57879 10.8026 4.0885C10.9608 4.59767 10.5068 5.12904 9.59846 6.19125L9.36338 6.46587C9.10554 6.76758 8.97609 6.91871 8.91813 7.10504C8.86017 7.29192 8.87967 7.49342 8.91867 7.89587L8.95442 8.26258C9.09146 9.68012 9.16025 10.3886 8.74533 10.7033C8.33042 11.018 7.70642 10.731 6.4595 10.1568L6.13613 10.0084C5.78188 9.84479 5.60475 9.76354 5.41679 9.76354C5.22884 9.76354 5.05171 9.84479 4.69746 10.0084L4.37463 10.1568C3.12717 10.731 2.50317 11.018 2.08879 10.7039C1.67334 10.3886 1.74213 9.68012 1.87917 8.26258L1.91492 7.89641C1.95392 7.49341 1.97342 7.29192 1.91492 7.10558C1.8575 6.91871 1.72804 6.76758 1.47021 6.46642L1.23513 6.19125C0.326752 5.12958 -0.127164 4.59821 0.0310023 4.0885C0.189169 3.57879 0.855961 3.42767 2.18846 3.1265L2.53296 3.0485C2.91159 2.96292 3.10063 2.92012 3.25284 2.80475C3.40504 2.68937 3.502 2.51442 3.697 2.1645L3.87467 1.846Z" fill="#050042"/>
</svg>
