<svg width="11" height="11" viewBox="0 0 11 11" fill="none" xmlns="http://www.w3.org/2000/svg">
<path d="M5.41699 0.5C5.43417 0.499959 5.5186 0.495376 5.72559 0.765625C5.9337 1.03737 6.17115 1.45986 6.52246 2.08984L6.7002 2.4082C6.87337 2.71897 7.02394 3.00961 7.27832 3.20312C7.53635 3.39923 7.85503 3.46044 8.19043 3.53613L8.53516 3.61426C9.21823 3.76892 9.672 3.87357 9.98047 3.99512C10.2794 4.11295 10.3128 4.19743 10.3252 4.2373C10.3391 4.28236 10.3567 4.38164 10.1777 4.66602C10.0862 4.81148 9.96251 4.97605 9.80371 5.17188L9.21875 5.86621L8.9834 6.14062C8.75307 6.41015 8.53608 6.64891 8.44043 6.95605V6.95703C8.36941 7.18612 8.37389 7.42387 8.39551 7.68066L8.4209 7.94434L8.45703 8.31152C8.52705 9.03576 8.57316 9.52445 8.55762 9.87402C8.54212 10.2218 8.46932 10.2849 8.44336 10.3047C8.42556 10.3182 8.36339 10.3725 8.05176 10.2832C7.73383 10.1921 7.30812 9.99647 6.66895 9.70215H6.66797L6.34375 9.55371C6.03123 9.40935 5.73956 9.26373 5.41699 9.26367C5.0939 9.26367 4.80135 9.40913 4.48828 9.55371L4.16602 9.70215C3.52639 9.99655 3.09931 10.192 2.78125 10.2832C2.46961 10.3725 2.40797 10.3188 2.39062 10.3057C2.3642 10.2856 2.29192 10.2219 2.27637 9.87402C2.26077 9.52443 2.30693 9.03582 2.37695 8.31152L2.41211 7.94531V7.94434C2.44266 7.62864 2.47798 7.34272 2.42188 7.07129L2.3916 6.95605C2.29615 6.64821 2.07933 6.40994 1.84961 6.1416H1.85059L1.61523 5.86621L1.03027 5.17188C0.871573 4.97624 0.747787 4.81237 0.65625 4.66699C0.476605 4.38159 0.494733 4.28162 0.508789 4.23633C0.52112 4.19673 0.554254 4.11171 0.852539 3.99414C1.00692 3.9333 1.19786 3.877 1.43555 3.81641L2.29883 3.61426L2.64355 3.53613C2.97933 3.46024 3.29646 3.39883 3.55469 3.20312C3.8104 3.0093 3.96109 2.71811 4.13379 2.4082L4.31152 2.08984C4.66275 1.46002 4.89934 1.03738 5.10742 0.765625C5.31526 0.49424 5.40027 0.5 5.41699 0.5Z" stroke="#050042"/>
</svg>
