<svg width="19" height="13" viewBox="0 0 19 13" fill="none" xmlns="http://www.w3.org/2000/svg">
<path d="M12.2681 0H6.73194C3.01389 0 0 2.91005 0 6.5C0 10.09 3.01389 13 6.73194 13H12.2681C15.9861 13 19 10.09 19 6.5C19 2.91005 15.9861 0 12.2681 0ZM8.19444 9.5066H6.73056C6.47917 9.5066 6.2375 9.46905 6.00278 9.41407C4.64861 9.0949 3.6375 7.92284 3.6375 6.51877C3.6375 5.11471 4.60417 4.00165 5.90972 3.65164C6.17361 3.58057 6.44444 3.53095 6.73194 3.53095H8.44722V5.01011H6.73194C5.575 5.01011 4.70972 6.23045 5.43889 7.40654C5.68056 7.79544 6.125 8.02744 6.59444 8.02744H7.16667L7.50556 7.22684H9.15555L8.19444 9.5066ZM13.0153 9.38591C12.7514 9.45698 12.4806 9.5066 12.1931 9.5066H10.4778V8.02744H12.1931C13.35 8.02744 14.2153 6.8071 13.4861 5.63101C13.2444 5.24211 12.8 5.01011 12.3306 5.01011H11.7583L11.4194 5.81071H9.76944L10.7306 3.53095H12.1944C12.4458 3.53095 12.6875 3.5685 12.9222 3.62348C14.2764 3.94264 15.2875 5.11471 15.2875 6.51877C15.2875 7.92284 14.3208 9.0359 13.0153 9.38591Z" fill="white"/>
</svg>
