<svg width="15" height="12" viewBox="0 0 15 12" fill="none" xmlns="http://www.w3.org/2000/svg">
<path d="M14.7736 0.155669C14.6079 0.0262123 14.3532 -0.00207623 14.2382 0.000115061C13.7198 0.00881409 12.9219 0.276459 9.08652 1.81702C7.74306 2.35556 5.05731 3.47183 1.03147 5.16582C0.376667 5.41716 0.0340948 5.66302 0.00362105 5.90238C-0.0560882 6.36369 0.630294 6.50729 1.49587 6.77929C2.20138 7.00015 3.15033 7.2591 3.64286 7.2678C4.08917 7.27975 4.58961 7.10132 5.14185 6.7347C8.90278 4.28456 10.8447 3.04534 10.9676 3.01815C11.0532 2.99856 11.1738 2.97572 11.2538 3.04428C11.3339 3.11391 11.326 3.24446 11.3181 3.28035C11.2493 3.56104 7.71493 6.66504 7.512 6.8696C6.73433 7.6475 5.85073 8.12512 7.21448 8.99114C8.3945 9.74294 9.08198 10.2217 10.2969 10.9919C11.0735 11.4826 11.6833 12.0658 12.4846 11.994C12.8543 11.9613 13.2351 11.6273 13.4279 10.6275C13.8866 8.26656 14.786 3.1498 14.9933 1.04131C15.0114 0.85634 14.9889 0.620237 14.9708 0.516878C14.955 0.376531 14.884 0.24817 14.7736 0.155669Z" fill="white"/>
</svg>
