<svg width="150" height="181" viewBox="0 0 150 181" fill="none" xmlns="http://www.w3.org/2000/svg">
<path d="M74 181C55 181 39.3333 177.667 27 171C14.6667 164.333 5.66667 158.083 0 152.25L20.5 130C25.5 135 32.25 139.833 40.75 144.5C49.25 149.167 60.0833 151.5 73.25 151.5C86.25 151.5 96.3333 149.25 103.5 144.75C110.667 140.25 114.25 134.417 114.25 127.25C114.25 119.75 110.75 113.5 103.75 108.5C96.9167 103.5 86.75 101 73.25 101H48V72.25H73.25C80.9167 72.25 87.4167 71.1667 92.75 69C98.0833 66.8333 102 64.0833 104.5 60.75C107.167 57.4167 108.5 53.9167 108.5 50.25C108.5 44.4167 105.5 39.5 99.5 35.5C93.6667 31.3333 84.9167 29.25 73.25 29.25C61.4167 29.25 51.5 31.25 43.5 35.25C35.6667 39.0833 29.6667 43 25.5 47L5.25 25.25C7.75 22.75 11.8333 19.5833 17.5 15.75C23.1667 11.9167 30.9167 8.33333 40.75 5C50.5833 1.66667 61.75 0 74.25 0C88.4167 0 100.75 2.25 111.25 6.74999C121.75 11.25 129.667 17.1667 135 24.5C140.5 31.6667 143.25 39.1667 143.25 47C143.25 56.5 140.25 64.6667 134.25 71.5C128.417 78.3333 121.833 83 114.5 85.5C123.333 88 131.333 93 138.5 100.5C145.667 108 149.25 117.25 149.25 128.25C149.25 137.25 146.25 145.833 140.25 154C134.417 162 125.75 168.5 114.25 173.5C102.917 178.5 89.5 181 74 181Z" fill="white"/>
</svg>
