<svg width="141" height="178" viewBox="0 0 141 178" fill="none" xmlns="http://www.w3.org/2000/svg">
<path d="M0 178C0 163 3.16667 150.25 9.5 139.75C15.8333 129.25 23.4167 120.833 32.25 114.5C41.0833 108.167 52.5 101.25 66.5 93.75C75.6667 88.9167 82.8333 84.8333 88 81.5C93.1667 78.1667 97.4167 74.3333 100.75 70C104.25 65.6667 106 60.8333 106 55.5C106 48.5 103 42.6667 97 38C91 33.3333 82.75 31 72.25 31C64.9167 31 58.3333 32.3333 52.5 35C46.6667 37.6667 42 40.75 38.5 44.25C35 47.75 32.5833 50.8333 31.25 53.5L2.75 40C4.91667 35.3333 8.58333 30 13.75 24C19.0833 18 26.6667 12.5 36.5 7.49999C46.5 2.5 58.6667 0 73 0C86.3333 0 98.0833 2.41666 108.25 7.25C118.583 12.0833 126.583 18.6667 132.25 27C137.917 35.3333 140.75 44.5833 140.75 54.75C140.75 65.0833 138.417 73.8333 133.75 81C129.083 88.1667 123.333 94.0833 116.5 98.75C109.833 103.417 100.75 108.75 89.25 114.75C78.25 120.417 69.25 125.583 62.25 130.25C55.4167 134.917 49.8333 140.5 45.5 147H140.75V178H0Z" fill="white"/>
</svg>
