<svg width="48" height="50" viewBox="0 0 48 50" fill="none" xmlns="http://www.w3.org/2000/svg">
<path class="" d="M24.0029 49.9678V50L24.002 49.9697M24.0029 49.9678L24.002 49.9697M24.0029 49.9678L24.002 49.9697M24.0029 49.9678V49.9541L24.002 49.9697M24 0.5C25.8013 0.519006 27.599 0.867624 29.2949 1.55469C29.5192 1.64553 29.9535 1.83431 30.1875 1.9375C34.1599 3.68856 37.9088 5.87461 41.3662 8.40625L41.3672 8.40723C41.3773 8.41461 41.3996 8.43049 41.4199 8.44531C41.4301 8.45277 41.4398 8.46036 41.4473 8.46582C41.4561 8.47229 41.4584 8.47369 41.457 8.47266L41.459 8.47461C44.5248 10.7532 46.5433 14.1529 47.0693 17.9053V17.9062L47.1055 18.2178C47.3629 20.4435 47.5 22.705 47.5 24.998C47.5 27.0047 47.395 28.9878 47.1963 30.9434L47.1055 31.7793C47.0926 31.8895 47.0819 31.9867 47.0693 32.0908C46.5445 35.8356 44.5336 39.2292 41.4785 41.5078C41.478 41.5082 41.4768 41.5092 41.4746 41.5107C41.471 41.5134 41.4657 41.5173 41.46 41.5215C41.4484 41.5299 41.4335 41.5405 41.418 41.5518C41.3872 41.574 41.3526 41.5995 41.335 41.6123L41.333 41.6133C37.6799 44.284 33.724 46.5642 29.502 48.3584L29.2988 48.4463C27.6071 49.1317 25.8143 49.4799 24.0176 49.499L24 49.498L23.9814 49.499C22.185 49.4797 20.3926 49.1316 18.7012 48.4463H18.7002C18.6105 48.4084 18.6073 48.4048 18.498 48.3584C14.276 46.5642 10.32 44.284 6.66699 41.6133L6.66504 41.6123C6.64742 41.5995 6.61281 41.574 6.58203 41.5518C6.56646 41.5405 6.55159 41.5299 6.54004 41.5215C6.53425 41.5173 6.52903 41.5134 6.52539 41.5107C6.52322 41.5092 6.52203 41.5082 6.52148 41.5078C3.46638 39.2291 1.45449 35.8356 0.929687 32.0908H0.930664L0.894531 31.7793C0.637081 29.5534 0.5 27.2912 0.5 24.998C0.500015 22.9915 0.605048 21.0091 0.803711 19.0537L0.894531 18.2178C0.907417 18.1074 0.917106 18.0097 0.929687 17.9053C1.45572 14.1529 3.47513 10.7532 6.54102 8.47461L6.54297 8.47266C6.54159 8.47369 6.54391 8.47229 6.55273 8.46582C6.56018 8.46036 6.56988 8.45277 6.58008 8.44531C6.60036 8.43049 6.62269 8.41461 6.63281 8.40723L6.63379 8.40625C10.0912 5.87461 13.8401 3.68856 17.8125 1.9375C18.0465 1.83431 18.4808 1.64553 18.7051 1.55469C20.401 0.867624 22.1986 0.519006 24 0.5Z" stroke="#050042"/>
<path class="" d="M24.4975 34.7983L33.7962 25.4995L13.346 25.4989V24.499L33.7928 24.499L24.4975 15.2037L25.2046 14.4966L35.709 25.001L25.2046 35.5054L24.4975 34.7983Z" fill="#050042"/>
</svg>
