<svg width="48" height="50" viewBox="0 0 48 50" fill="none" xmlns="http://www.w3.org/2000/svg">
<path d="M24.0029 0C25.8657 0.0194161 27.7265 0.379498 29.4824 1.09082C29.7144 1.18479 30.1548 1.37636 30.3887 1.47949C34.3953 3.24561 38.1756 5.4507 41.6611 8.00293C41.6813 8.01767 41.7512 8.06826 41.7578 8.07324C44.9331 10.4333 47.0238 13.9563 47.5664 17.8457C47.579 17.9502 47.5903 18.0555 47.6025 18.1602C47.8621 20.4042 48 22.685 48 24.998C48 27.3111 47.8621 29.5926 47.6025 31.8369L47.5664 32.1514L47.5107 32.5137C46.8933 36.251 44.8426 39.623 41.7773 41.9092L41.6279 42.0166C37.9456 44.7087 33.9571 47.0085 29.6982 48.8184L29.4873 48.9092L29.1562 49.0391C27.497 49.6655 25.7509 49.9836 24.0029 50H23.9971L23.6475 49.9932C21.9 49.9365 20.1602 49.5768 18.5127 48.9092L18.3018 48.8184C14.0429 47.0085 10.0544 44.7087 6.37207 42.0166L6.22266 41.9092C3.15739 39.623 1.10667 36.251 0.489258 32.5137L0.433594 32.1514L0.397461 31.8369C0.137887 29.5926 5.92145e-08 27.3111 0 24.998C1.48988e-05 22.974 0.105341 20.9746 0.305664 19.0029L0.397461 18.1602C0.40967 18.0555 0.421 17.9502 0.433594 17.8457C0.959219 14.0777 2.9381 10.6538 5.94824 8.29785L6.24219 8.07324C6.24881 8.06826 6.31866 8.01767 6.33887 8.00293C9.60653 5.61025 13.133 3.52319 16.8623 1.81641L17.6113 1.47949L18.5176 1.09082C20.2735 0.379497 22.1343 0.0194159 23.9971 0H24.0029ZM24 1C22.2613 1.01899 20.5273 1.35529 18.8926 2.01758V2.01855C18.6762 2.1062 18.2489 2.29125 18.0146 2.39453C14.0765 4.13045 10.3589 6.29864 6.92969 8.80957L6.92773 8.81055C6.918 8.81765 6.8962 8.83385 6.87598 8.84863C6.86577 8.85609 6.85588 8.86383 6.84863 8.86914C6.84501 8.87179 6.84166 8.87366 6.83984 8.875L6.83887 8.87598C3.88258 11.0732 1.93527 14.3496 1.42578 17.9648C1.41319 18.0693 1.40422 18.1599 1.39062 18.2764C1.13542 20.4834 1.00002 22.7253 1 24.998C1 27.2709 1.13539 29.5135 1.39062 31.7207C1.40417 31.8369 1.41421 31.9271 1.42676 32.0312C1.93509 35.6393 3.87432 38.9102 6.82031 41.1074L6.83398 41.1172C6.84528 41.1254 6.85948 41.1362 6.875 41.1475L6.95898 41.208L6.96191 41.21C10.5855 43.8591 14.5082 46.119 18.6934 47.8975L18.8877 47.9824C20.5127 48.6409 22.2361 48.9777 23.9639 48.999L24 48.9961L24.0352 48.999C25.7632 48.9778 27.486 48.641 29.1113 47.9824C29.2162 47.9381 29.1583 47.9605 29.3066 47.8975L30.0879 47.5586C33.9807 45.8351 37.6408 43.6936 41.0381 41.21L41.041 41.208C41.0589 41.195 41.0945 41.1695 41.125 41.1475C41.1405 41.1362 41.1547 41.1254 41.166 41.1172C41.1731 41.1121 41.1776 41.1089 41.1797 41.1074L41.4531 40.8975C44.2454 38.7046 46.0808 35.5263 46.5732 32.0312C46.5858 31.9271 46.5958 31.8368 46.6094 31.7207C46.8646 29.5135 47 27.2709 47 24.998C47 22.7253 46.8646 20.4834 46.6094 18.2764L46.5732 17.9658V17.9648C46.0637 14.3496 44.1174 11.0732 41.1611 8.87598L41.1602 8.875C41.1583 8.87366 41.155 8.87179 41.1514 8.86914C41.1441 8.86383 41.1342 8.85609 41.124 8.84863C41.1038 8.83385 41.082 8.81765 41.0723 8.81055L41.0703 8.80957C37.6411 6.29864 33.9235 4.13045 29.9854 2.39453C29.7511 2.29125 29.3238 2.1062 29.1074 2.01855V2.01758C27.4727 1.35529 25.7387 1.01899 24 1ZM32.3613 31.7725H31.3613V18.6221L16.9004 33.082L16.1934 32.375L30.6514 17.917H17.5059V16.917H32.3613V31.7725Z" fill="#050042"/>
</svg>
