<svg width="14" height="14" viewBox="0 0 14 14" fill="none" xmlns="http://www.w3.org/2000/svg">
<path d="M7 5.25C7.9665 5.25 8.75 4.4665 8.75 3.5C8.75 2.5335 7.9665 1.75 7 1.75C6.0335 1.75 5.25 2.5335 5.25 3.5C5.25 4.4665 6.0335 5.25 7 5.25Z" fill="#050042"/>
<path d="M7 9.625C4.6375 9.625 1.925 10.7538 1.75 11.3838V12.25H12.25V11.375C12.075 10.7537 9.3625 9.625 7 9.625Z" fill="#050042"/>
<path d="M7 7C8.93375 7 10.5 5.43375 10.5 3.5C10.5 1.56625 8.93375 0 7 0C5.06625 0 3.5 1.56625 3.5 3.5C3.5 5.43375 5.06625 7 7 7ZM7 1.75C7.9625 1.75 8.75 2.5375 8.75 3.5C8.75 4.4625 7.9625 5.25 7 5.25C6.0375 5.25 5.25 4.4625 5.25 3.5C5.25 2.5375 6.0375 1.75 7 1.75ZM7 7.875C4.66375 7.875 0 9.0475 0 11.375V14H14V11.375C14 9.0475 9.33625 7.875 7 7.875ZM12.25 12.25H1.75V11.3837C1.925 10.7537 4.6375 9.625 7 9.625C9.3625 9.625 12.075 10.7537 12.25 11.375V12.25Z" fill="#050042"/>
</svg>
