<svg width="15" height="10" viewBox="0 0 15 10" fill="none" xmlns="http://www.w3.org/2000/svg">
<path fill-rule="evenodd" clip-rule="evenodd" d="M7.36153 9.93714H8.27098C8.27098 9.93714 8.54382 9.88428 8.68023 9.72571C8.81665 9.56713 8.81665 9.24999 8.81665 9.24999C8.81665 9.24999 8.81665 7.87571 9.36232 7.66428C9.908 7.45285 10.6356 9.03856 11.3631 9.61999C11.9088 10.0957 12.318 9.98999 12.318 9.98999L14.3188 9.93714C14.3188 9.93714 15.3647 9.88428 14.8645 8.87999C14.819 8.82714 14.5917 8.19285 13.3639 6.87142C12.0907 5.49714 12.2726 5.76142 13.7732 3.38285C14.6826 1.95571 15.0464 1.11 14.9555 0.687142C14.8645 0.317142 14.1824 0.422856 14.1824 0.422856H11.9088C11.9088 0.422856 11.7269 0.369999 11.636 0.475714C11.4995 0.581428 11.4541 0.739999 11.4541 0.739999C11.4541 0.739999 11.0903 1.85 10.6356 2.80143C9.63516 4.75714 9.22591 4.86285 9.08949 4.75714C8.72571 4.49285 8.81665 3.59428 8.81665 3.01285C8.81665 1.11 9.08949 0.317142 8.31645 0.105714C8.08909 0.0528565 7.9072 0 7.27058 0C6.45207 0 5.76998 -2.04784e-07 5.4062 0.211428C5.13336 0.369999 4.95147 0.687142 5.08789 0.687142C5.22431 0.687142 5.58809 0.792857 5.76998 1.05714C5.95187 1.53286 5.95187 2.32571 5.95187 2.32571C5.95187 2.32571 6.08829 4.59857 5.63356 4.86285C5.31525 5.07428 4.906 4.65142 3.99655 2.85428C3.54182 1.95571 3.17804 0.89857 3.17804 0.89857C3.17804 0.89857 3.13256 0.687142 2.99615 0.581428C2.85973 0.475714 2.63236 0.422856 2.63236 0.422856H0.495147C0.495147 0.422856 0.176838 0.422857 0.0404202 0.581428C-0.0505252 0.74 0.0404202 1.00428 0.0404202 1.00428C0.0404202 1.00428 1.72291 5.55 3.63276 7.87571C5.4062 10.0957 7.36153 9.93714 7.36153 9.93714Z" fill="white"/>
</svg>
