<svg width="92" height="39" viewBox="0 0 92 39" fill="none" xmlns="http://www.w3.org/2000/svg">
<path d="M36.5283 8.72695L27.4462 3.40536C26.0488 2.58025 24.6065 1.82521 23.1212 1.15423C22.9433 1.07386 22.6082 0.924512 22.4315 0.851147C21.0951 0.296308 19.6793 0.0151724 18.2616 0C16.8439 0.0151724 15.4281 0.296308 14.0918 0.851147C13.9151 0.924512 13.5799 1.07386 13.402 1.15423C10.3529 2.53181 7.47623 4.25154 4.82364 6.24228C4.80826 6.25384 4.75561 6.29321 4.75055 6.29711C2.33401 8.13796 0.743036 10.8861 0.330193 13.9199C0.320617 14.0014 0.311861 14.0832 0.302557 14.1648C0.105022 15.9154 0 17.6945 0 19.4988C0 21.303 0.105022 23.0821 0.302557 24.8327C0.311861 24.9144 0.320617 24.9962 0.330193 25.0778C0.742216 28.1053 2.32746 30.8482 4.73536 32.6889C4.74514 32.6964 4.82282 32.7538 4.84894 32.7733C7.65133 34.8731 10.687 36.6665 13.9281 38.0782C13.9818 38.1015 14.0348 38.1262 14.0885 38.1494C15.4258 38.7048 16.8427 38.9864 18.2616 39C19.6806 38.9864 21.0975 38.7048 22.4348 38.1494C22.4885 38.1262 22.5415 38.1015 22.5952 38.0782C25.8363 36.6665 28.8719 34.8731 31.6743 32.7733C31.7005 32.7538 31.7781 32.6964 31.7879 32.6889C34.1958 30.8482 35.7811 28.1053 36.1931 25.0778C36.2027 24.9962 36.2114 24.9144 36.2206 24.8327C36.4182 23.0821 36.5233 21.303 36.5233 19.4988C36.5233 19.4737 36.5223 19.4489 36.5222 19.4239L36.5283 8.72695ZM18.262 23.3736L26.5327 18.8234L27.3565 20.2732L18.262 25.2769L10.8153 21.1797V22.432C10.8153 23.2924 11.2781 24.0816 12.0232 24.4917L17.1635 27.3199C17.8513 27.698 18.6728 27.698 19.3606 27.3199L26.5327 23.3738L27.3565 24.8237L20.1456 28.7912C19.5558 29.1155 18.9089 29.2777 18.262 29.2777C17.6152 29.2777 16.9683 29.1155 16.3786 28.7912L11.2382 25.963C9.961 25.26 9.16757 23.9071 9.16757 22.432V17.1178C9.16757 15.6425 9.961 14.2893 11.2383 13.5868L18.262 9.7223L19.0859 11.1722L12.0232 15.0582C11.9258 15.1117 11.8339 15.1724 11.7465 15.2383L14.1269 16.548L22.3974 11.9973L23.2212 13.4473L15.8564 17.4996L18.262 18.8232L26.5327 14.2721L27.3565 15.7221L18.262 20.7264L10.8655 16.6568C10.8358 16.8073 10.8153 16.9606 10.8153 17.1178V19.2765L18.262 23.3736Z" fill="white"/>
<path d="M72.7281 10.7145C72.7274 10.709 72.7268 10.7034 72.7262 10.6979C72.6981 10.4915 72.5899 10.3046 72.4255 10.1793C72.4255 10.1793 72.4216 10.1764 72.4205 10.1756C72.2401 10.0402 72.0444 9.9232 71.837 9.82949C71.8249 9.82403 71.8021 9.81387 71.7901 9.80888C71.6992 9.77113 71.6029 9.75201 71.5064 9.75098C71.41 9.75201 71.3137 9.77113 71.2228 9.80888C71.2107 9.81387 71.1879 9.82403 71.1758 9.82949C70.9684 9.9232 70.7727 10.0402 70.5923 10.1756C70.5912 10.1764 70.5873 10.1793 70.5873 10.1793C70.4229 10.3046 70.3147 10.4915 70.2866 10.6979C70.286 10.7034 70.2854 10.709 70.2848 10.7145C70.2713 10.8336 70.2642 10.9546 70.2642 11.0774C70.2642 11.2001 70.2713 11.3211 70.2848 11.4402C70.2854 11.4458 70.286 11.4513 70.2866 11.4569C70.3147 11.6628 70.4225 11.8494 70.5863 11.9746C70.587 11.9751 70.5922 11.9791 70.594 11.9804C70.7846 12.1232 70.9911 12.2452 71.2116 12.3412C71.2153 12.3428 71.2189 12.3445 71.2225 12.3461C71.3135 12.3839 71.4099 12.403 71.5064 12.404C71.6029 12.403 71.6993 12.3839 71.7903 12.3461C71.7939 12.3445 71.7975 12.3428 71.8012 12.3412C72.0217 12.2452 72.2282 12.1232 72.4188 11.9804C72.4206 11.9791 72.4259 11.9751 72.4265 11.9746C72.5903 11.8494 72.6982 11.6628 72.7262 11.4569C72.7268 11.4513 72.7274 11.4458 72.7281 11.4402C72.7415 11.3211 72.7487 11.2001 72.7487 11.0774C72.7487 10.9546 72.7415 10.8336 72.7281 10.7145Z" fill="white"/>
<path d="M68.6338 10.7145C68.6332 10.709 68.6326 10.7034 68.632 10.6979C68.6039 10.4915 68.4956 10.3046 68.3313 10.1793C68.3313 10.1793 68.3273 10.1764 68.3263 10.1756C68.1458 10.0402 67.9502 9.9232 67.7427 9.82949C67.7306 9.82403 67.7078 9.81387 67.6958 9.80888C67.6049 9.77113 67.5086 9.75201 67.4122 9.75098C67.3157 9.75201 67.2194 9.77113 67.1285 9.80888C67.1165 9.81387 67.0937 9.82403 67.0816 9.82949C66.8742 9.9232 66.6785 10.0402 66.4981 10.1756C66.497 10.1764 66.4931 10.1793 66.4931 10.1793C66.3287 10.3046 66.2205 10.4915 66.1924 10.6979C66.1917 10.7034 66.1911 10.709 66.1905 10.7145C66.1771 10.8336 66.1699 10.9546 66.1699 11.0774C66.1699 11.2001 66.1771 11.3211 66.1905 11.4402C66.1911 11.4458 66.1917 11.4513 66.1924 11.4569C66.2204 11.6628 66.3282 11.8494 66.492 11.9746C66.4927 11.9751 66.498 11.9791 66.4998 11.9804C66.6904 12.1232 66.8969 12.2452 67.1174 12.3412C67.121 12.3428 67.1246 12.3445 67.1283 12.3461C67.2193 12.3839 67.3156 12.403 67.4122 12.404C67.5087 12.403 67.6051 12.3839 67.696 12.3461C67.6997 12.3445 67.7033 12.3428 67.707 12.3412C67.9274 12.2452 68.1339 12.1232 68.3246 11.9804C68.3263 11.9791 68.3316 11.9751 68.3323 11.9746C68.4961 11.8494 68.6039 11.6628 68.632 11.4569C68.6326 11.4513 68.6332 11.4458 68.6338 11.4402C68.6473 11.3211 68.6544 11.2001 68.6544 11.0774C68.6544 10.9546 68.6473 10.8336 68.6338 10.7145Z" fill="white"/>
<path d="M48.0882 26.4745H45.6553V13.9419H48.0352L53.3417 19.8503H53.3947L58.6832 13.9419H61.028V26.4745H58.5951V17.3612H58.5423L53.3417 23.1086L48.141 17.3612H48.0882V26.4745Z" fill="white"/>
<path d="M75.0374 26.4745H64.1953V13.9419H74.8612V16.0546H66.6283V18.9729H73.0981V21.0497H66.6283V24.3618H75.0374V26.4745Z" fill="white"/>
<path d="M89.64 24.326H91.6501V29.2498H89.2346V26.4745H79.3624V29.2498H76.9297V24.326H77.987C78.2459 24.0995 78.5305 23.6877 78.8419 23.0906C79.1532 22.4941 79.4331 21.7331 79.6795 20.8077C79.9264 19.8833 80.073 18.8594 80.1203 17.7376L80.2612 13.9419H89.64V24.326ZM87.225 24.326V16.09H82.5707L82.4828 17.7376C82.4236 18.9074 82.2827 19.9575 82.0597 20.8887C81.8362 21.8194 81.5835 22.5746 81.3013 23.1532C81.0195 23.7323 80.7726 24.1232 80.5611 24.326H87.225Z" fill="white"/>
</svg>
