<svg width="92" height="39" viewBox="0 0 92 39" fill="none" xmlns="http://www.w3.org/2000/svg">
<path d="M36.5283 8.72695L27.4462 3.40536C26.0488 2.58025 24.6065 1.82521 23.1212 1.15423C22.9433 1.07386 22.6082 0.924512 22.4315 0.851147C21.0951 0.296308 19.6793 0.0151724 18.2616 0C16.8439 0.0151724 15.4281 0.296308 14.0918 0.851147C13.9151 0.924512 13.5799 1.07386 13.402 1.15423C10.3529 2.53181 7.47623 4.25154 4.82364 6.24228C4.80826 6.25384 4.75561 6.29321 4.75055 6.29711C2.33401 8.13796 0.743036 10.8861 0.330193 13.9199C0.320617 14.0014 0.311861 14.0832 0.302557 14.1648C0.105022 15.9154 0 17.6945 0 19.4988C0 21.303 0.105022 23.0821 0.302557 24.8327C0.311861 24.9144 0.320617 24.9962 0.330193 25.0778C0.742216 28.1053 2.32746 30.8482 4.73536 32.6889C4.74514 32.6964 4.82282 32.7538 4.84894 32.7733C7.65133 34.8731 10.687 36.6665 13.9281 38.0782C13.9818 38.1015 14.0348 38.1262 14.0885 38.1494C15.4258 38.7048 16.8427 38.9864 18.2616 39C19.6806 38.9864 21.0975 38.7048 22.4348 38.1494C22.4885 38.1262 22.5415 38.1015 22.5952 38.0782C25.8363 36.6665 28.8719 34.8731 31.6743 32.7733C31.7005 32.7538 31.7781 32.6964 31.7879 32.6889C34.1958 30.8482 35.7811 28.1053 36.1931 25.0778C36.2027 24.9962 36.2114 24.9144 36.2206 24.8327C36.4182 23.0821 36.5233 21.303 36.5233 19.4988C36.5233 19.4737 36.5223 19.4489 36.5222 19.4239L36.5283 8.72695ZM18.262 23.3736L26.5327 18.8234L27.3565 20.2732L18.262 25.2769L10.8153 21.1797V22.432C10.8153 23.2924 11.2781 24.0816 12.0232 24.4917L17.1635 27.3199C17.8513 27.698 18.6728 27.698 19.3606 27.3199L26.5327 23.3738L27.3565 24.8237L20.1456 28.7912C19.5558 29.1155 18.9089 29.2777 18.262 29.2777C17.6152 29.2777 16.9683 29.1155 16.3786 28.7912L11.2382 25.963C9.961 25.26 9.16757 23.9071 9.16757 22.432V17.1178C9.16757 15.6425 9.961 14.2893 11.2383 13.5868L18.262 9.7223L19.0859 11.1722L12.0232 15.0582C11.9258 15.1117 11.8339 15.1724 11.7465 15.2383L14.1269 16.548L22.3974 11.9973L23.2212 13.4473L15.8564 17.4996L18.262 18.8232L26.5327 14.2721L27.3565 15.7221L18.262 20.7264L10.8655 16.6568C10.8358 16.8073 10.8153 16.9606 10.8153 17.1178V19.2765L18.262 23.3736Z" fill="#050042"/>
<path d="M72.7276 10.7146C72.727 10.7091 72.7264 10.7035 72.7257 10.698C72.6976 10.4916 72.5894 10.3047 72.425 10.1794C72.425 10.1794 72.4211 10.1765 72.42 10.1757C72.2396 10.0403 72.0439 9.9233 71.8365 9.82959C71.8244 9.82412 71.8016 9.81397 71.7896 9.80898C71.6987 9.77123 71.6024 9.75211 71.5059 9.75108C71.4095 9.75211 71.3132 9.77123 71.2223 9.80898C71.2102 9.81397 71.1875 9.82412 71.1753 9.82959C70.9679 9.9233 70.7722 10.0403 70.5918 10.1757C70.5908 10.1765 70.5868 10.1794 70.5868 10.1794C70.4224 10.3047 70.3142 10.4916 70.2861 10.698C70.2855 10.7035 70.2849 10.7091 70.2843 10.7146C70.2708 10.8337 70.2637 10.9547 70.2637 11.0775C70.2637 11.2002 70.2708 11.3212 70.2843 11.4403C70.2849 11.4459 70.2855 11.4514 70.2861 11.457C70.3142 11.6629 70.422 11.8495 70.5858 11.9747C70.5865 11.9752 70.5917 11.9792 70.5935 11.9805C70.7842 12.1233 70.9907 12.2453 71.2111 12.3413C71.2148 12.3429 71.2184 12.3446 71.222 12.3462C71.313 12.384 71.4094 12.4031 71.5059 12.4041C71.6024 12.4031 71.6988 12.384 71.7898 12.3462C71.7935 12.3446 71.7971 12.3429 71.8007 12.3413C72.0212 12.2453 72.2277 12.1233 72.4183 11.9805C72.4201 11.9792 72.4254 11.9752 72.426 11.9747C72.5898 11.8495 72.6977 11.6629 72.7257 11.457C72.7264 11.4514 72.727 11.4459 72.7276 11.4403C72.741 11.3212 72.7482 11.2002 72.7482 11.0775C72.7482 10.9547 72.741 10.8337 72.7276 10.7146Z" fill="#050042"/>
<path d="M68.6338 10.7146C68.6332 10.7091 68.6326 10.7035 68.632 10.698C68.6039 10.4916 68.4956 10.3047 68.3313 10.1794C68.3313 10.1794 68.3273 10.1765 68.3263 10.1757C68.1458 10.0403 67.9502 9.9233 67.7427 9.82959C67.7306 9.82412 67.7078 9.81397 67.6958 9.80898C67.6049 9.77123 67.5086 9.75211 67.4122 9.75108C67.3157 9.75211 67.2194 9.77123 67.1285 9.80898C67.1165 9.81397 67.0937 9.82412 67.0816 9.82959C66.8742 9.9233 66.6785 10.0403 66.4981 10.1757C66.497 10.1765 66.4931 10.1794 66.4931 10.1794C66.3287 10.3047 66.2205 10.4916 66.1924 10.698C66.1917 10.7035 66.1911 10.7091 66.1905 10.7146C66.1771 10.8337 66.1699 10.9547 66.1699 11.0775C66.1699 11.2002 66.1771 11.3212 66.1905 11.4403C66.1911 11.4459 66.1917 11.4514 66.1924 11.457C66.2204 11.6629 66.3282 11.8495 66.492 11.9747C66.4927 11.9752 66.498 11.9792 66.4998 11.9805C66.6904 12.1233 66.8969 12.2453 67.1174 12.3413C67.121 12.3429 67.1246 12.3446 67.1283 12.3462C67.2193 12.384 67.3156 12.4031 67.4122 12.4041C67.5087 12.4031 67.6051 12.384 67.696 12.3462C67.6997 12.3446 67.7033 12.3429 67.707 12.3413C67.9274 12.2453 68.1339 12.1233 68.3246 11.9805C68.3263 11.9792 68.3316 11.9752 68.3323 11.9747C68.4961 11.8495 68.6039 11.6629 68.632 11.457C68.6326 11.4514 68.6332 11.4459 68.6338 11.4403C68.6473 11.3212 68.6544 11.2002 68.6544 11.0775C68.6544 10.9547 68.6473 10.8337 68.6338 10.7146Z" fill="#050042"/>
<path d="M48.0882 26.4748H45.6553V13.9421H48.0352L53.3417 19.8505H53.3947L58.6832 13.9421H61.028V26.4748H58.5951V17.3614H58.5423L53.3417 23.1088L48.141 17.3614H48.0882V26.4748Z" fill="#050042"/>
<path d="M75.0374 26.4748H64.1953V13.9421H74.8612V16.0548H66.6283V18.9731H73.0981V21.0499H66.6283V24.3621H75.0374V26.4748Z" fill="#050042"/>
<path d="M89.64 24.3262H91.6501V29.25H89.2346V26.4748H79.3624V29.25H76.9297V24.3262H77.987C78.2459 24.0997 78.5305 23.6879 78.8419 23.0909C79.1532 22.4943 79.4331 21.7333 79.6795 20.8079C79.9264 19.8835 80.073 18.8596 80.1203 17.7378L80.2612 13.9421H89.64V24.3262ZM87.225 24.3262V16.0902H82.5707L82.4828 17.7378C82.4236 18.9077 82.2827 19.9577 82.0597 20.8889C81.8362 21.8197 81.5835 22.5748 81.3013 23.1534C81.0195 23.7325 80.7726 24.1234 80.5611 24.3262H87.225Z" fill="#050042"/>
</svg>
