<svg width="720" height="1157" viewBox="0 0 720 1157" fill="none" xmlns="http://www.w3.org/2000/svg">
<path d="M720 1157H0V0H720V1157ZM360.547 225C334.404 225.247 308.299 230.351 283.661 240.419C282.671 240.839 281.694 241.287 280.705 241.711C220.99 267.302 165.062 299.812 113.431 337.879C112.949 338.232 111.52 339.273 111.338 339.408C66.9742 372.778 37.7682 422.502 30.1768 477.385C30.0004 478.863 29.839 480.347 29.6689 481.828C26.0295 513.562 24.0928 545.815 24.0928 578.522C24.0927 578.992 24 610.937 24 610.937V773.796L191.386 870.367L191.329 870.267C217.075 885.224 243.649 898.912 271.013 911.076C274.291 912.533 280.466 915.24 283.722 916.57C308.342 926.629 334.427 931.725 360.547 932C386.667 931.725 412.751 926.629 437.372 916.57C440.627 915.24 446.802 912.533 450.08 911.076C506.258 886.103 559.258 854.927 608.129 818.839C608.412 818.629 609.382 817.916 609.476 817.845C653.998 784.474 683.311 734.655 690.917 679.657C691.093 678.18 691.254 676.697 691.426 675.217C695.065 643.483 697 611.23 697 578.521C697 545.814 695.065 513.562 691.426 481.828C691.254 480.347 691.093 478.863 690.917 477.385C683.326 422.502 654.119 372.778 609.755 339.408C609.574 339.272 608.144 338.232 607.663 337.879C556.032 299.812 500.103 267.302 440.388 241.711C439.399 241.287 438.423 240.839 437.433 240.419C412.794 230.351 386.689 225.247 360.547 225Z" fill="white"/>
</svg>
