<svg width="1440" height="671" viewBox="0 0 1440 671" fill="none" xmlns="http://www.w3.org/2000/svg">
<path d="M1440 196.512C1426.93 189.402 1413.56 182.79 1399.91 176.722C1397.69 175.736 1393.52 173.903 1391.31 173.003C1374.65 166.196 1357 162.748 1339.33 162.562C1321.65 162.748 1304 166.196 1287.34 173.003C1285.14 173.903 1280.96 175.736 1278.74 176.722C1260.22 184.953 1242.24 194.216 1224.82 204.338L1224.86 204.27L1111.59 269.621V379.831C1111.59 379.924 1111.65 401.444 1111.65 401.766C1111.65 423.899 1112.96 445.725 1115.42 467.2C1115.54 468.202 1115.65 469.206 1115.77 470.207C1120.91 507.347 1140.67 540.996 1170.69 563.578C1170.81 563.67 1171.78 564.374 1172.11 564.613C1207.04 590.374 1244.89 612.373 1285.3 629.691C1285.97 629.978 1286.63 630.281 1287.3 630.565C1303.97 637.378 1321.64 640.833 1339.33 641C1357.02 640.833 1374.68 637.379 1391.35 630.566C1392.02 630.282 1392.68 629.978 1393.35 629.691C1409.31 622.853 1424.86 615.282 1440 607.04V671H0V0H1440V196.512Z" fill="white"/>
<path d="M817.294 268.181L744.099 225.95L744.123 225.993C732.865 219.452 721.244 213.467 709.279 208.147C707.845 207.51 705.145 206.326 703.722 205.745C692.955 201.346 681.549 199.117 670.127 198.997C658.705 199.117 647.298 201.346 636.532 205.745C635.109 206.326 632.408 207.51 630.975 208.147C606.409 219.068 583.233 232.702 561.862 248.483C561.738 248.575 561.314 248.887 561.273 248.918C541.804 263.511 528.986 285.297 525.66 309.348C525.583 309.994 525.513 310.643 525.438 311.29C523.846 325.167 523 339.272 523 353.575C523 367.879 523.846 381.983 525.438 395.86C525.513 396.508 525.583 397.156 525.66 397.803C528.98 421.804 541.751 443.548 561.151 458.141C561.23 458.2 561.856 458.656 562.066 458.81C584.644 475.457 609.101 489.673 635.213 500.865C635.646 501.05 636.073 501.246 636.506 501.43C647.28 505.832 658.695 508.064 670.127 508.173C681.559 508.064 692.974 505.832 703.748 501.43C704.181 501.246 704.608 501.05 705.04 500.865C731.153 489.673 755.61 475.457 778.188 458.81C778.398 458.655 779.023 458.2 779.103 458.141C798.502 443.548 811.274 421.804 814.593 397.803C814.671 397.156 814.741 396.508 814.815 395.86C816.407 381.982 817.254 367.878 817.254 353.575C817.254 353.376 817.294 339.4 817.294 339.4V268.181Z" fill="#050042"/>
<path d="M817.295 268.992L888.757 310.223C900.53 317.146 912.715 323.445 925.27 329.026C926.703 329.662 929.403 330.846 930.827 331.428C941.593 335.827 953 338.055 964.422 338.176C964.428 338.176 964.435 338.175 964.442 338.175C975.857 338.052 987.256 335.824 998.016 331.428C999.44 330.846 1002.14 329.662 1003.57 329.026C1015.54 323.706 1027.16 317.721 1038.42 311.179L1038.39 311.223L1111.59 268.992L1111.54 184.191C1111.54 183.992 1111.55 183.796 1111.55 183.598V183.588C1111.55 169.288 1110.7 155.187 1109.11 141.313C1109.04 140.665 1108.97 140.017 1108.89 139.37C1105.57 115.369 1092.8 93.6242 1073.4 79.0314C1073.32 78.9723 1072.69 78.5172 1072.48 78.3626C1049.9 61.716 1025.45 47.4991 999.335 36.3077C998.903 36.1229 998.476 35.9268 998.043 35.7432C987.275 31.3429 975.867 29.1113 964.442 29.0006C964.435 29.0006 964.428 29 964.422 29C952.99 29.1081 941.574 31.3404 930.801 35.7432C930.367 35.9268 929.941 36.1229 929.508 36.3077C903.395 47.4991 878.939 61.716 856.361 78.3626C856.15 78.5172 855.525 78.9723 855.446 79.0314C836.046 93.6242 823.275 115.369 819.955 139.37C819.878 140.017 819.807 140.665 819.732 141.313C818.141 155.187 817.295 169.288 817.295 183.588C817.295 183.591 817.295 183.594 817.295 183.598C817.295 183.769 817.298 183.94 817.298 184.112L817.295 184.106V268.992Z" fill="#050042"/>
</svg>
