<svg width="1440" height="922" viewBox="0 0 1440 922" fill="none" xmlns="http://www.w3.org/2000/svg">
<path d="M1440 922H0V0H1440V922ZM445.474 125C430.518 125.141 415.584 128.05 401.489 133.789C400.923 134.029 400.364 134.284 399.799 134.525C365.638 149.113 333.643 167.644 304.106 189.343C303.831 189.544 303.013 190.138 302.91 190.215C277.531 209.236 260.823 237.579 256.48 268.863C256.38 269.706 256.286 270.551 256.188 271.396C254.106 289.484 253 307.869 253 326.513C253 345.157 254.106 363.541 256.188 381.63C256.286 382.473 256.38 383.319 256.48 384.161C260.832 415.511 277.6 443.908 303.069 462.93C303.123 462.97 303.677 463.376 303.84 463.496C331.797 484.067 362.117 501.838 394.254 516.073C396.129 516.904 399.662 518.447 401.524 519.205C415.609 524.938 430.531 527.843 445.474 528C460.416 527.843 475.338 524.938 489.423 519.205C491.285 518.447 494.817 516.904 496.692 516.073C512.346 509.14 527.548 501.338 542.276 492.812L542.244 492.868L638 437.821V344.989C638 344.989 637.946 326.776 637.946 326.513C637.946 307.869 636.839 289.484 634.757 271.396C634.66 270.551 634.568 269.706 634.467 268.863C630.124 237.579 613.416 209.236 588.037 190.215C587.933 190.138 587.115 189.544 586.84 189.343C557.303 167.644 525.308 149.113 491.147 134.525C490.582 134.284 490.023 134.029 489.457 133.789C475.362 128.05 460.429 125.141 445.474 125Z" fill="#050042"/>
<path d="M638 437.731L707.889 397.709L707.866 397.751C718.615 391.552 729.711 385.88 741.136 380.839C742.505 380.235 745.083 379.113 746.442 378.562C756.722 374.393 767.614 372.281 778.519 372.167C789.425 372.281 800.317 374.393 810.597 378.562C811.956 379.113 814.534 380.235 815.903 380.839C839.359 391.188 861.488 404.108 881.893 419.064C882.012 419.151 882.417 419.447 882.456 419.476C901.045 433.306 913.284 453.952 916.46 476.745C916.534 477.357 916.601 477.972 916.672 478.585C918.192 491.736 919 505.103 919 518.658C919 532.213 918.192 545.579 916.672 558.73C916.601 559.344 916.534 559.959 916.46 560.572C913.29 583.317 901.096 603.924 882.572 617.753C882.497 617.809 881.9 618.241 881.699 618.387C860.141 634.163 836.789 647.636 811.856 658.241C811.443 658.417 811.035 658.603 810.622 658.777C800.334 662.949 789.435 665.064 778.519 665.167C767.604 665.064 756.704 662.949 746.417 658.777C746.004 658.603 745.596 658.417 745.183 658.241C720.25 647.636 696.898 634.163 675.34 618.387C675.139 618.241 674.542 617.809 674.467 617.753C655.943 603.924 643.749 583.317 640.579 560.572C640.505 559.959 640.438 559.344 640.367 558.73C638.847 545.579 638.039 532.213 638.039 518.658C638.039 518.47 638 505.225 638 505.225V437.731Z" stroke="white" stroke-opacity="0.6" stroke-width="0.6"/>
<path d="M707.987 709.783C707.925 709.25 707.867 708.715 707.803 708.182C705.057 688.345 694.473 670.377 678.397 658.34C678.364 658.315 678.014 658.057 677.911 657.982C660.265 644.965 641.129 633.721 620.845 624.714C619.661 624.188 617.432 623.212 616.256 622.732C607.366 619.104 597.948 617.266 588.517 617.167C588.511 617.167 588.506 617.168 588.5 617.168C588.494 617.168 588.489 617.167 588.483 617.167C579.052 617.266 569.634 619.104 560.744 622.732C559.568 623.212 557.339 624.188 556.155 624.714C535.871 633.721 516.735 644.965 499.089 657.982C498.986 658.057 498.636 658.315 498.603 658.34C482.527 670.377 471.943 688.345 469.197 708.182C469.133 708.715 469.075 709.25 469.013 709.783C467.699 721.229 467 732.862 467 744.659C467 756.456 467.699 768.089 469.013 779.535C469.075 780.069 469.133 780.604 469.197 781.137C471.938 800.932 482.483 818.867 498.502 830.902C498.566 830.951 499.083 831.327 499.257 831.454C517.899 845.184 538.094 856.909 559.655 866.14C560.012 866.293 560.364 866.454 560.722 866.606C569.618 870.237 579.044 872.078 588.483 872.167C588.489 872.167 588.494 872.167 588.5 872.166C588.506 872.167 588.511 872.167 588.517 872.167C597.956 872.078 607.382 870.237 616.278 866.606C616.636 866.454 616.988 866.293 617.345 866.14C638.906 856.909 659.101 845.184 677.743 831.454C677.917 831.327 678.434 830.951 678.498 830.902C694.517 818.867 705.062 800.932 707.803 781.137C707.867 780.604 707.925 780.069 707.987 779.535C709.301 768.089 710 756.456 710 744.659C710 732.862 709.301 721.229 707.987 709.783Z" stroke="white" stroke-opacity="0.6" stroke-width="0.6"/>
</svg>
