<svg width="100" height="106" viewBox="0 0 100 106" fill="none" xmlns="http://www.w3.org/2000/svg">
<path d="M99.1717 67.2341C99.1462 67.455 99.1223 67.6765 99.096 67.8972C97.9658 76.1105 93.6104 83.5501 86.9948 88.5337C86.981 88.5442 86.8369 88.6509 86.7948 88.682C79.533 94.0715 71.658 98.7271 63.3106 102.457C62.8235 102.674 61.906 103.078 61.4223 103.277C57.7639 104.779 53.888 105.54 50.0069 105.581C50.0046 105.581 50.0023 105.581 50 105.581C49.9977 105.581 49.9954 105.581 49.9931 105.581C46.112 105.54 42.2361 104.779 38.5777 103.277C38.094 103.078 37.1764 102.674 36.6894 102.457C28.342 98.7271 20.4669 94.0715 13.2052 88.682C13.1631 88.6509 13.0189 88.5442 13.0052 88.5337C6.38958 83.5501 2.03417 76.1105 0.903929 67.8972C0.877692 67.6765 0.853752 67.455 0.828316 67.2341C0.287537 62.495 0 57.6784 0 52.7938C0 47.9094 0.287537 43.0929 0.828316 38.3538C0.853752 38.1327 0.877692 37.9111 0.903929 37.6905C2.03192 29.4943 6.37162 22.0687 12.9636 17.0853C12.9903 17.0651 13.203 16.9095 13.2745 16.8569C20.9463 11.172 29.2566 6.31725 38.1296 2.49546C38.2765 2.43214 38.4216 2.36537 38.5687 2.30247C42.2297 0.798927 46.1086 0.0368347 49.9931 -8.39233e-05C49.9954 -8.39233e-05 49.9977 -8.39233e-05 50 0.0001297C50.0023 -8.39233e-05 50.0046 -8.39233e-05 50.0069 -8.39233e-05C53.8914 0.0368347 57.7703 0.798927 61.4312 2.30247C61.5784 2.36537 61.7234 2.43214 61.8704 2.49546C70.7433 6.31725 79.0537 11.172 86.7255 16.8569C86.797 16.9095 87.0097 17.0651 87.0364 17.0853C93.6284 22.0687 97.968 29.4943 99.096 37.6905C99.1223 37.9111 99.1462 38.1327 99.1717 38.3538C99.7124 43.0929 100 47.9094 100 52.7938C100 57.6784 99.7124 62.495 99.1717 67.2341Z" fill="#050042"/>
</svg>
